<svg xmlns="http://www.w3.org/2000/svg" width="128" zoomAndPan="magnify" viewBox="0 0 96 95.999999" height="128"
     preserveAspectRatio="xMidYMid meet" version="1.0"><defs><g/><clipPath id="57dd7463a5"><path d="M 1 0.429688 L 91 0.429688 L 91 86 L 1 86 Z M 1 0.429688 " clip-rule="nonzero"/></clipPath><clipPath id="b600ee0e29"><path d="M 51 95 L 53 95 L 53 95.679688 L 51 95.679688 Z M 51 95 " clip-rule="nonzero"/></clipPath><clipPath id="4039b1c4ca"><path d="M 39 94 L 52 94 L 52 95.679688 L 39 95.679688 Z M 39 94 " clip-rule="nonzero"/></clipPath><clipPath id="e3c8de56aa"><path d="M 52 94 L 57 94 L 57 95.679688 L 52 95.679688 Z M 52 94 " clip-rule="nonzero"/></clipPath><clipPath id="0dc89b566a"><path d="M 52 95 L 53 95 L 53 95.679688 L 52 95.679688 Z M 52 95 " clip-rule="nonzero"/></clipPath></defs><g clip-path="url(#57dd7463a5)"><path fill="#49766b" d="M 82.039062 23.707031 C 81.628906 22.96875 81.253906 22.191406 80.796875 21.472656 L 80.46875 21.507812 C 80.898438 22.21875 81.261719 22.976562 81.636719 23.707031 Z M 77.667969 16.714844 C 77.535156 16.253906 77.445312 15.941406 77.257812 15.273438 C 76.445312 15.671875 76.679688 16.03125 77.667969 16.714844 Z M 75.410156 14.519531 C 75.417969 14.429688 75.15625 14.199219 75.003906 14.019531 C 74.636719 14.121094 74.320312 14.226562 73.894531 14.367188 C 75.09375 15.210938 75.371094 15.046875 75.410156 14.519531 Z M 72.988281 12.71875 C 71.371094 11.726562 69.730469 10.824219 67.941406 10.015625 C 67.730469 10.445312 67.574219 10.757812 67.421875 11.070312 L 67.800781 11.355469 C 68.226562 11.226562 68.648438 11.097656 69.074219 10.960938 C 69.582031 11.570312 69.8125 11.898438 70.304688 12.101562 C 70.796875 12.296875 71.507812 12.421875 72.988281 12.71875 Z M 66.054688 9.804688 C 65.46875 9.523438 64.851562 9.300781 64.238281 9.054688 C 64.359375 8.867188 64.460938 8.699219 64.582031 8.503906 C 63.972656 8.253906 63.390625 8.039062 62.824219 7.847656 C 62.257812 7.652344 61.714844 7.464844 61.152344 7.363281 C 60.332031 7.183594 59.488281 7.160156 58.710938 7.214844 C 58.539062 7.21875 58.601562 7.574219 58.574219 7.691406 C 61.144531 8.625 63.523438 9.242188 66.054688 9.804688 Z M 53.808594 6.699219 C 52.953125 6.472656 52.183594 6.328125 51.40625 6.21875 C 50.628906 6.144531 49.84375 6.167969 48.96875 6.339844 C 49.800781 6.609375 50.550781 6.726562 51.324219 6.753906 C 52.097656 6.820312 52.894531 6.742188 53.808594 6.699219 Z M 47.363281 6.4375 C 46.449219 6.464844 45.53125 6.558594 44.621094 6.628906 L 44.636719 6.785156 C 45.542969 6.707031 46.457031 6.621094 47.367188 6.59375 Z M 41.335938 7.324219 L 41.046875 7.179688 C 40.851562 7.261719 40.59375 7.324219 40.480469 7.4375 C 40.355469 7.5625 40.355469 7.714844 40.300781 7.851562 L 40.582031 7.867188 C 40.828125 7.675781 41.082031 7.507812 41.335938 7.324219 Z M 38.699219 7.875 C 38.277344 7.921875 37.859375 7.988281 37.4375 8.042969 L 37.390625 8.277344 L 38.648438 8.09375 Z M 33.730469 9.386719 C 32.71875 9.792969 31.808594 10.265625 30.925781 10.691406 C 30.058594 11.175781 29.210938 11.601562 28.410156 12.117188 L 28.457031 12.242188 C 29.128906 11.855469 29.921875 11.335938 30.511719 11.246094 C 31.300781 11.105469 31.863281 10.894531 32.328125 10.550781 C 32.800781 10.210938 33.210938 9.808594 33.730469 9.386719 Z M 26.757812 15.910156 C 25.449219 16.554688 25.425781 16.542969 25.492188 17.375 C 25.960938 16.796875 26.367188 16.367188 26.757812 15.910156 Z M 22.527344 16.117188 L 22.160156 15.941406 C 21.492188 16.695312 20.808594 17.425781 20.199219 18.21875 L 20.4375 18.34375 C 21.089844 17.5625 21.816406 16.851562 22.527344 16.117188 Z M 22.078125 19.214844 C 20.730469 20.34375 19.492188 21.527344 18.296875 22.8125 C 18.941406 23.179688 19.535156 23.410156 20.527344 22.542969 C 20.800781 22.015625 21.289062 21.453125 21.660156 20.898438 C 22.046875 20.355469 22.304688 19.800781 22.078125 19.214844 Z M 15.925781 22.210938 L 15.648438 22.117188 C 15.304688 22.984375 14.664062 23.691406 14.046875 24.425781 C 13.4375 25.160156 12.882812 25.9375 12.808594 26.878906 C 12.960938 26.949219 13.101562 27.011719 13.394531 27.140625 C 12.832031 27.636719 12.496094 27.933594 12.191406 28.203125 C 11.859375 29.253906 11.527344 30.257812 11.289062 31.289062 L 11.441406 31.269531 C 12.519531 28.917969 13.828125 26.664062 15.277344 24.617188 C 15.191406 24.238281 14.984375 23.964844 15.085938 23.582031 C 15.191406 23.160156 15.632812 22.675781 15.925781 22.210938 Z M 18.132812 24.136719 C 17.878906 24.347656 17.65625 24.585938 17.453125 24.832031 C 17.261719 25.085938 17.09375 25.359375 16.9375 25.628906 C 16.777344 25.90625 16.628906 26.1875 16.480469 26.460938 C 16.34375 26.746094 16.210938 27.03125 16.0625 27.3125 C 16.238281 27.042969 16.425781 26.789062 16.625 26.535156 C 16.835938 26.289062 17.042969 26.046875 17.234375 25.796875 C 17.613281 25.285156 17.957031 24.765625 18.132812 24.136719 Z M 10.046875 25.535156 L 9.410156 26.90625 L 8.835938 28.308594 L 9.0625 28.339844 C 9.28125 27.898438 9.488281 27.453125 9.714844 27.015625 L 10.421875 25.710938 Z M 6.773438 28.175781 C 7.449219 27.542969 7.972656 26.871094 8.4375 26.1875 C 8.925781 25.515625 9.296875 24.800781 9.683594 24.105469 C 10.441406 22.703125 11.113281 21.28125 12.023438 20.066406 C 10.65625 20.953125 10.160156 22.460938 9.378906 23.730469 C 8.570312 25.039062 7.746094 26.347656 6.773438 28.175781 Z M 18.441406 21.101562 C 20.058594 19.984375 20.066406 20.015625 19.238281 19.171875 C 18.886719 20.011719 18.667969 20.484375 18.441406 21.101562 Z M 10.09375 34.085938 C 9.476562 34.929688 9.203125 35.4375 8.886719 35.746094 C 8.429688 36.203125 7.921875 36.59375 7.84375 37.523438 C 7.792969 38.246094 7.925781 38.941406 8.054688 39.546875 C 8.210938 40.238281 8.542969 40.085938 8.714844 39.371094 C 8.792969 38.972656 8.875 38.582031 8.953125 38.171875 C 9.054688 37.773438 9.152344 37.363281 9.261719 36.933594 C 9.457031 36.070312 9.761719 35.15625 10.09375 34.085938 Z M 7.019531 41.066406 C 6.894531 41.820312 6.828125 42.574219 6.765625 43.332031 L 6.914062 43.355469 C 7.03125 42.613281 7.152344 41.871094 7.324219 41.144531 Z M 82.597656 23.863281 C 82.523438 24.539062 82.128906 24.683594 81.570312 24.457031 C 81.222656 24.308594 80.699219 23.820312 80.347656 23.398438 C 78.96875 21.816406 77.53125 20.289062 75.960938 18.898438 C 74.382812 17.53125 72.675781 16.304688 70.847656 15.347656 C 70.292969 15.074219 69.75 14.75 69.210938 14.441406 C 64.417969 11.496094 58.882812 9.855469 53.347656 9.546875 C 50.359375 9.359375 47.304688 9.277344 44.3125 9.691406 C 41.179688 10.136719 38.105469 10.960938 35.21875 12.207031 C 31.265625 13.859375 27.609375 16.21875 24.546875 19.113281 C 23.195312 20.410156 21.953125 21.539062 20.511719 22.574219 L 20.515625 22.566406 L 19.394531 23.746094 C 19.023438 24.148438 18.683594 24.570312 18.34375 24.996094 C 17.960938 25.453125 17.617188 26.0625 17.46875 26.542969 C 17.21875 27.359375 16.917969 28.082031 16.46875 28.703125 C 16.0625 29.347656 15.519531 29.898438 14.957031 30.464844 C 14.769531 30.65625 14.613281 30.9375 14.378906 31.265625 C 14.414062 31.710938 14.472656 32.171875 14.550781 32.71875 C 14.097656 33.125 13.644531 33.511719 13.25 33.921875 C 13.222656 33.976562 13.199219 34.023438 13.179688 34.070312 L 13.140625 34.027344 C 13.140625 34.027344 13.171875 33.996094 13.199219 33.964844 C 13.230469 33.929688 13.257812 33.898438 13.257812 33.898438 C 12.96875 33.265625 13.128906 32.597656 13.617188 31.667969 C 13.964844 31.050781 14.308594 30.421875 14.632812 29.785156 C 14.992188 29.160156 15.320312 28.519531 15.703125 27.910156 C 15.445312 28.074219 15.121094 28.191406 14.96875 28.433594 C 13.457031 30.859375 12.183594 33.464844 11.308594 36.199219 C 10.640625 38.3125 10.1875 40.53125 10.097656 42.691406 C 10.089844 43.359375 10.160156 44.003906 10.3125 44.625 C 10.480469 45.246094 10.707031 45.84375 10.957031 46.417969 C 11.050781 45.984375 11.140625 45.550781 11.238281 45.101562 C 11.285156 45.183594 11.378906 45.261719 11.375 45.335938 C 11.234375 47.109375 11.304688 48.886719 11.347656 50.660156 C 11.367188 50.921875 11.019531 51.183594 10.761719 51.574219 C 10.480469 50.535156 10.304688 49.648438 10.035156 48.210938 C 9.710938 50.511719 9.589844 52.371094 9.589844 54.488281 C 10.710938 55.859375 10.808594 57.882812 11.148438 59.90625 C 11.234375 60.542969 11.511719 60.855469 11.742188 61.335938 C 12.121094 62.144531 12.460938 62.949219 12.660156 63.808594 C 12.910156 64.640625 13.027344 65.539062 13.160156 66.417969 C 12.898438 66.105469 12.664062 65.714844 12.417969 65.492188 C 12.3125 65.40625 12.171875 65.632812 12.042969 65.757812 C 11.804688 64.898438 11.574219 64.046875 11.425781 63.289062 C 11.289062 62.980469 11.152344 62.671875 11.015625 62.363281 C 10.890625 62.042969 10.761719 61.714844 10.628906 61.371094 C 10.34375 60.691406 10.097656 59.925781 9.792969 59.011719 C 9.816406 60.605469 9.925781 61.722656 10.023438 62.804688 C 9.757812 62.40625 9.394531 61.859375 8.945312 61.191406 C 9.15625 60.710938 9.308594 60.179688 9.316406 59.578125 C 9.316406 58.976562 9.234375 58.285156 9.007812 57.472656 C 8.761719 56.667969 8.796875 55.738281 8.777344 54.902344 C 8.78125 54.34375 8.75 53.84375 8.625 53.371094 C 8.492188 52.902344 8.304688 52.460938 8.058594 52.007812 C 7.800781 52.273438 7.53125 52.546875 7.269531 52.835938 C 7.152344 52.617188 6.988281 52.433594 6.984375 52.265625 C 6.972656 51.742188 6.96875 51.21875 6.972656 50.652344 C 7.007812 50.085938 7.039062 49.46875 7.082031 48.757812 C 7.328125 49.425781 7.464844 49.789062 7.605469 50.164062 C 7.683594 49.527344 7.777344 48.820312 7.835938 48.101562 C 7.890625 47.476562 7.910156 46.332031 7.804688 46.257812 C 6.890625 45.640625 7.386719 44.101562 7.453125 42.683594 C 6.988281 44.191406 7.242188 45.691406 6.472656 46.890625 C 6.296875 47.167969 6.242188 47.769531 6.226562 48.453125 C 6.242188 49.140625 6.308594 49.90625 6.332031 50.535156 C 6.574219 54.667969 7.394531 58.773438 8.851562 62.636719 C 9.03125 63.179688 9.367188 63.710938 9.648438 64.226562 C 9.792969 64.484375 9.925781 64.734375 10.027344 64.980469 C 10.148438 65.21875 10.242188 65.449219 10.289062 65.667969 C 10.40625 66.210938 10.539062 66.730469 10.746094 67.207031 C 10.945312 67.691406 11.183594 68.152344 11.445312 68.605469 C 12.011719 69.515625 12.339844 70.882812 13.390625 71.191406 C 13.457031 71.214844 13.691406 71.605469 13.71875 71.765625 C 13.832031 72.402344 14.132812 72.804688 14.472656 73.128906 C 14.820312 73.441406 15.210938 73.679688 15.621094 73.898438 C 15.679688 74.34375 15.609375 74.785156 15.828125 75.113281 C 16.101562 75.535156 16.71875 76.035156 17.042969 76.109375 C 17.339844 76.175781 17.671875 76.410156 17.925781 76.636719 C 18.179688 76.855469 18.363281 77.0625 18.320312 77.105469 C 17.503906 77.914062 19.101562 78.71875 19.703125 79.429688 C 19.878906 79.65625 20.304688 79.988281 20.457031 79.992188 C 21.53125 79.992188 22.082031 80.183594 22.09375 81.433594 C 22.101562 81.625 23.261719 82.527344 23.949219 82.878906 C 24.695312 83.265625 25.582031 83.3125 26.175781 83.710938 C 26.527344 83.964844 26.820312 84.289062 27.074219 84.660156 C 27.332031 85.019531 27.558594 85.414062 27.769531 85.835938 L 26.839844 85.304688 L 25.9375 84.734375 L 25.039062 84.15625 L 24.175781 83.53125 C 22.34375 82.160156 20.6875 80.757812 18.726562 79.820312 C 17.984375 79.492188 17.210938 78.597656 16.417969 77.90625 C 16.476562 77.585938 16.515625 77.351562 16.566406 77.035156 C 15.726562 76.320312 14.890625 75.246094 14.117188 74.792969 C 12.394531 73.726562 11.59375 71.964844 11.125 70.324219 C 10.761719 69.1875 10.492188 68.347656 9.71875 67.554688 C 9.386719 67.203125 9.148438 66.777344 8.925781 66.34375 C 8.695312 65.90625 8.492188 65.445312 8.289062 64.996094 C 7.320312 63.046875 6.644531 61.050781 6.273438 58.886719 C 6.164062 58.136719 5.953125 57.386719 5.796875 56.621094 C 5.625 55.851562 5.421875 55.085938 5.316406 54.308594 C 5.277344 54.066406 5.234375 53.671875 5.160156 53.609375 C 4.308594 52.882812 4.609375 51.589844 4.707031 50.632812 C 4.878906 49.539062 4.746094 48.691406 4.644531 47.621094 C 4.328125 45.03125 4.265625 42.265625 5.476562 39.753906 C 5.78125 39.109375 6.03125 38.097656 6.117188 37.308594 C 6.234375 36.53125 6.300781 35.746094 6.402344 34.945312 C 6.523438 34.152344 6.601562 33.320312 6.78125 32.449219 C 6.660156 32.425781 6.429688 32.371094 6.125 32.296875 C 6.285156 31.675781 6.4375 31.03125 6.625 30.378906 C 5.730469 31.378906 4.84375 32.429688 4.667969 34.257812 C 4.976562 34.3125 5.308594 34.371094 5.550781 34.417969 C 5.039062 36.625 4.691406 38.675781 4.484375 40.746094 C 4.414062 41.28125 4.1875 41.835938 4.066406 42.394531 L 3.792969 42.417969 C 3.777344 41.738281 3.792969 41.058594 3.824219 40.375 C 3.84375 39.691406 3.871094 39.003906 3.941406 38.320312 L 3.644531 38.320312 C 1.550781 46.84375 2.242188 55.914062 5.078125 64.273438 C 4.824219 63.730469 4.554688 63.191406 4.324219 62.625 C 4.058594 61.933594 3.84375 61.21875 3.632812 60.507812 C 0.976562 50.882812 1.523438 40.460938 5.085938 31.066406 C 7.074219 25.828125 9.800781 20.800781 13.511719 16.5 C 18.304688 10.953125 24.441406 6.488281 31.324219 3.769531 C 34.757812 2.402344 38.355469 1.425781 42.011719 0.9375 C 45.671875 0.445312 49.367188 0.398438 53.015625 0.78125 C 57.109375 1.195312 61.121094 2.253906 64.894531 3.777344 C 68.675781 5.308594 72.199219 7.363281 75.402344 9.773438 C 77.539062 11.382812 79.324219 13.3125 81.078125 15.257812 C 82.578125 16.933594 84.066406 18.65625 85.34375 20.515625 C 85.820312 21.164062 86.28125 21.859375 86.660156 22.542969 C 87.78125 24.703125 88.710938 26.90625 89.703125 29.171875 C 89.96875 29.863281 90.121094 30.574219 90.386719 31.878906 C 89.910156 31.082031 89.460938 30.316406 89.101562 29.527344 C 88.722656 28.753906 88.367188 27.988281 88.015625 27.238281 C 87.273438 25.761719 86.480469 24.355469 85.25 23.332031 C 85.378906 22.820312 85.28125 22.191406 85.027344 21.542969 C 84.753906 20.910156 84.335938 20.253906 83.847656 19.683594 C 83.339844 19.132812 82.773438 18.652344 82.167969 18.207031 C 81.550781 17.789062 80.886719 17.339844 80.265625 16.921875 C 80.414062 17.5625 80.699219 18.265625 80.503906 18.378906 C 80.253906 18.535156 79.621094 18.21875 79.089844 18.125 C 79.863281 19.046875 80.265625 20.035156 81.347656 21.082031 C 81.671875 21.371094 82 21.839844 82.242188 22.347656 C 82.480469 22.855469 82.65625 23.386719 82.597656 23.863281 " fill-opacity="1" fill-rule="nonzero"/></g><path fill="#49766b" d="M 68.390625 89.945312 L 68.367188 89.949219 C 68.355469 89.96875 68.34375 89.988281 68.332031 90.011719 L 68.390625 89.945312 " fill-opacity="1" fill-rule="nonzero"/><path fill="#49766b" d="M 59.820312 92.140625 C 60.671875 92.007812 61.519531 91.808594 62.375 91.621094 C 63.214844 91.386719 64.050781 91.132812 64.839844 90.800781 C 65.527344 90.496094 66.128906 90.296875 66.707031 90.167969 C 67.269531 90.023438 67.808594 89.960938 68.367188 89.949219 C 68.601562 89.511719 68.96875 89.179688 69.429688 88.894531 C 69.882812 88.605469 70.457031 88.40625 71.058594 88.152344 C 71.914062 87.800781 72.761719 87.441406 73.558594 86.957031 C 74.378906 86.5 75.15625 85.9375 75.921875 85.257812 C 76.582031 84.683594 77.296875 84 78.074219 83.488281 C 78.816406 82.945312 79.628906 82.574219 80.429688 82.527344 C 80.34375 81.832031 80.308594 81.554688 80.679688 81.132812 C 81.054688 80.710938 81.816406 80.140625 83.242188 78.78125 C 83.238281 78.964844 83.25 79.171875 83.234375 79.714844 C 83.851562 78.664062 84.273438 78.03125 84.535156 77.40625 C 84.976562 76.351562 85.5 75.507812 86.464844 74.878906 C 86.695312 74.730469 87 74.46875 87.171875 74.210938 C 88.386719 72.257812 89.148438 70.105469 90.585938 68.257812 C 90.691406 68.117188 90.695312 67.777344 90.773438 67.53125 C 91.042969 66.789062 91.265625 66.027344 91.542969 65.289062 C 92.246094 63.589844 92.84375 61.847656 93.371094 60.082031 C 92.574219 61.792969 91.851562 63.660156 90.898438 64.511719 C 90.695312 65.445312 90.628906 66.222656 90.3125 66.886719 C 89.082031 69.605469 87.53125 72.171875 85.746094 74.539062 C 85.507812 74.851562 85.269531 75.164062 85.011719 75.460938 L 84.21875 76.335938 C 83.707031 76.929688 83.15625 77.480469 82.675781 78.082031 C 80.851562 80.3125 78.808594 82.371094 76.328125 83.789062 C 75.761719 84.136719 75.15625 84.554688 74.605469 84.972656 C 72.882812 86.25 71.128906 87.523438 69.191406 88.460938 C 65.898438 90.101562 62.355469 91.179688 58.773438 91.878906 C 59.117188 91.980469 59.457031 92.199219 59.820312 92.140625 " fill-opacity="1" fill-rule="nonzero"/><path fill="#49766b" d="M 58.773438 91.878906 L 58.761719 91.875 L 58.765625 91.878906 Z M 58.773438 91.878906 " fill-opacity="1" fill-rule="nonzero"/><path fill="#49766b" d="M 23.25 23.9375 C 22.652344 24.605469 22.152344 25.351562 21.558594 26.007812 C 20.398438 27.359375 19.265625 28.75 18.328125 30.273438 C 18.078125 30.714844 17.816406 31.109375 17.535156 31.464844 C 17.273438 31.828125 16.972656 32.148438 16.601562 32.421875 C 16.34375 32.597656 15.976562 33.386719 16.03125 33.511719 C 16.175781 33.882812 16.273438 34.277344 16.347656 34.753906 C 16.433594 35.230469 16.488281 35.796875 16.519531 36.476562 C 17.0625 34.953125 17.730469 33.625 18.414062 32.390625 C 18.730469 31.765625 19.097656 31.183594 19.378906 30.558594 C 19.703125 29.964844 19.964844 29.34375 20.214844 28.703125 C 20.34375 28.382812 20.703125 28.0625 20.960938 27.753906 C 21.222656 27.453125 21.589844 27.210938 21.785156 26.890625 C 23.019531 24.953125 24.601562 23.226562 26.597656 22.085938 C 26.964844 21.859375 27.316406 21.496094 27.6875 21.203125 C 26.914062 21.496094 26.160156 21.988281 25.429688 22.179688 C 24.472656 22.472656 23.867188 23.195312 23.25 23.9375 " fill-opacity="1" fill-rule="nonzero"/><path fill="#49766b" d="M 27.6875 21.203125 L 27.695312 21.199219 Z M 27.6875 21.203125 " fill-opacity="1" fill-rule="nonzero"/><path fill="#49766b" d="M 88.75 36.054688 C 88.140625 34.882812 87.707031 34.089844 86.929688 34.027344 C 86.738281 33.335938 86.597656 32.714844 86.394531 32.109375 C 86.335938 33.09375 86.519531 33.914062 86.910156 34.644531 C 87.246094 35.394531 87.769531 36.058594 88.199219 36.738281 C 88.054688 37.023438 87.859375 37.21875 87.898438 37.355469 C 88.078125 37.980469 88.261719 38.609375 88.410156 39.261719 C 88.492188 39.582031 88.570312 39.910156 88.652344 40.238281 C 88.730469 40.570312 88.789062 40.90625 88.859375 41.25 C 88.515625 41.5 88.398438 41.882812 88.417969 42.355469 C 88.417969 42.832031 88.539062 43.398438 88.71875 44.019531 C 89.207031 43.519531 89.644531 43.0625 90.207031 42.441406 C 89.796875 40.335938 89.765625 38.164062 88.75 36.054688 " fill-opacity="1" fill-rule="nonzero"/><path fill="#49766b" d="M 14.128906 41.175781 C 14.1875 42.191406 14.261719 43.167969 14.429688 44.257812 C 14.515625 44.15625 14.777344 43.984375 14.804688 43.773438 C 15.085938 42.058594 15.378906 40.328125 15.949219 38.683594 C 16.183594 37.914062 16.183594 37.453125 15.882812 37.019531 C 14.875 38.164062 14.101562 40.199219 14.128906 41.175781 " fill-opacity="1" fill-rule="nonzero"/><path fill="#49766b" d="M 16.449219 73.722656 C 16.710938 74.066406 16.972656 74.40625 17.226562 74.75 C 17.503906 75.074219 17.765625 75.402344 18 75.742188 C 18.765625 76.875 19.160156 76.671875 19.535156 76.332031 C 18.898438 75.605469 18.421875 74.898438 17.882812 74.207031 C 18.222656 73.601562 19.335938 74.011719 18.808594 72.886719 C 18.527344 72.246094 17.898438 71.71875 17.242188 71.667969 C 17.945312 73.296875 17.082031 73.394531 16.449219 73.722656 " fill-opacity="1" fill-rule="nonzero"/><path fill="#49766b" d="M 5.847656 66.707031 C 6.796875 68.914062 7.898438 71.050781 9.148438 73.09375 C 10.398438 75.140625 11.835938 77.066406 13.382812 78.894531 L 13.566406 78.773438 C 10.453125 75.144531 7.925781 71.019531 6.050781 66.621094 L 5.847656 66.707031 " fill-opacity="1" fill-rule="nonzero"/><path fill="#49766b" d="M 91.84375 41.0625 C 92.269531 38.863281 91.128906 36.660156 90.539062 34.539062 C 90.511719 34.4375 90.285156 34.363281 90.140625 34.273438 C 90.585938 36.347656 91.378906 39.640625 91.84375 41.0625 " fill-opacity="1" fill-rule="nonzero"/><g clip-path="url(#b600ee0e29)"><path fill="#49766b" d="M 52.195312 95.140625 L 51.886719 95.191406 L 52.265625 95.167969 Z M 52.195312 95.140625 " fill-opacity="1" fill-rule="nonzero"/></g><g clip-path="url(#4039b1c4ca)"><path fill="#49766b" d="M 39.023438 94.261719 C 42.441406 95.148438 45.988281 95.527344 49.503906 95.460938 C 50.300781 95.429688 51.09375 95.328125 51.886719 95.191406 C 50.839844 95.242188 49.773438 95.351562 48.75 95.363281 C 47.734375 95.339844 46.765625 95.28125 45.964844 94.875 C 45.300781 94.890625 44.691406 94.929688 44.101562 94.929688 C 43.515625 94.917969 42.953125 94.898438 42.382812 94.855469 C 41.820312 94.824219 41.265625 94.703125 40.699219 94.605469 C 40.140625 94.5 39.578125 94.398438 39.023438 94.261719 " fill-opacity="1" fill-rule="nonzero"/></g><path fill="#49766b" d="M 14.820312 54.007812 C 14.878906 53.125 14.914062 52.515625 14.835938 51.976562 C 14.792969 51.4375 14.644531 50.976562 14.386719 50.394531 C 14.117188 50.960938 13.992188 51.609375 14.0625 52.246094 C 14.160156 52.875 14.394531 53.496094 14.820312 54.007812 " fill-opacity="1" fill-rule="nonzero"/><path fill="#49766b" d="M 3.644531 48.039062 C 3.332031 48.917969 3.238281 49.820312 3.242188 50.796875 C 3.265625 51.289062 3.332031 51.796875 3.425781 52.328125 C 3.476562 52.597656 3.53125 52.871094 3.59375 53.148438 C 3.671875 53.429688 3.761719 53.714844 3.855469 54.007812 C 3.667969 52.847656 3.914062 51.847656 3.980469 50.910156 C 4.109375 49.964844 4.101562 49.078125 3.644531 48.039062 " fill-opacity="1" fill-rule="nonzero"/><path fill="#49766b" d="M 43.574219 90.507812 C 43.21875 90.429688 42.929688 90.296875 42.664062 90.136719 C 42.402344 89.96875 42.167969 89.777344 41.921875 89.601562 C 41.429688 89.242188 40.890625 88.988281 39.972656 88.984375 C 39.96875 89.269531 39.964844 89.527344 39.960938 89.878906 C 40.445312 90.003906 41.019531 90.097656 41.632812 90.210938 C 41.941406 90.265625 42.261719 90.320312 42.585938 90.378906 C 42.910156 90.421875 43.246094 90.460938 43.574219 90.507812 " fill-opacity="1" fill-rule="nonzero"/><path fill="#49766b" d="M 42.351562 92.632812 C 41.78125 92.324219 40.972656 91.875 40.238281 91.460938 C 39.828125 91.554688 39.304688 91.675781 38.773438 91.796875 C 38.886719 92.027344 39.015625 92.285156 39.179688 92.613281 C 39.789062 92.652344 40.394531 92.65625 40.949219 92.644531 C 41.492188 92.640625 41.980469 92.636719 42.351562 92.632812 " fill-opacity="1" fill-rule="nonzero"/><path fill="#49766b" d="M 58.761719 91.875 L 58.75 91.886719 L 58.765625 91.882812 Z M 58.761719 91.875 " fill-opacity="1" fill-rule="nonzero"/><path fill="#49766b" d="M 58.75 91.886719 C 58.289062 92.058594 57.804688 92.167969 57.300781 92.246094 C 56.800781 92.328125 56.28125 92.410156 55.75 92.496094 C 54.679688 92.621094 53.5625 92.824219 52.359375 93.199219 C 53.675781 93.171875 54.902344 93.191406 56 93.089844 C 57.085938 92.925781 58.050781 92.664062 58.75 91.886719 " fill-opacity="1" fill-rule="nonzero"/><path fill="#49766b" d="M 19.117188 81.289062 C 19.144531 81.660156 19.171875 81.839844 19.488281 82.144531 C 19.816406 82.4375 20.417969 82.882812 21.707031 83.632812 C 21.8125 83.378906 21.882812 83.203125 21.933594 83.074219 C 20.847656 82.460938 19.996094 81.867188 19.117188 81.289062 " fill-opacity="1" fill-rule="nonzero"/><path fill="#49766b" d="M 84.71875 28.960938 C 84.496094 28.613281 84.273438 28.265625 84.050781 27.910156 C 84.242188 28.574219 84.457031 29.21875 84.601562 29.882812 C 84.738281 30.449219 84.988281 31.035156 85.398438 30.984375 C 85.636719 30.953125 85.699219 30.464844 85.890625 30.046875 C 85.492188 29.859375 84.804688 29.082031 84.71875 28.960938 " fill-opacity="1" fill-rule="nonzero"/><path fill="#49766b" d="M 84.019531 27.800781 L 84.019531 27.804688 L 83.960938 27.769531 L 84.570312 26.945312 C 85.0625 27.628906 85.558594 28.226562 86.125 29.101562 C 85.933594 27.445312 85.191406 26.4375 84.203125 25.878906 C 83.9375 25.242188 84.6875 24.832031 83.523438 24.246094 C 83.527344 24.570312 83.535156 24.894531 83.542969 25.226562 C 83.53125 25.550781 83.523438 25.886719 83.515625 26.21875 C 83.074219 26.058594 82.703125 25.90625 82.253906 25.765625 C 82.574219 27.183594 83.289062 27.429688 83.964844 27.773438 L 84.050781 27.910156 L 84.023438 27.804688 L 84.019531 27.800781 " fill-opacity="1" fill-rule="nonzero"/><path fill="#49766b" d="M 36.085938 91.070312 C 35.542969 90.929688 35.050781 90.761719 34.714844 90.667969 C 34.621094 90.933594 34.539062 91.183594 34.429688 91.507812 C 34.855469 91.710938 35.441406 92.019531 36.152344 92.308594 C 36.128906 91.84375 36.109375 91.480469 36.085938 91.070312 " fill-opacity="1" fill-rule="nonzero"/><path fill="#49766b" d="M 12.8125 36.835938 C 13.121094 36.148438 13.390625 35.472656 13.761719 34.769531 C 13.554688 34.523438 13.367188 34.296875 13.179688 34.070312 C 12.492188 35.5 12.53125 35.585938 12.8125 36.835938 " fill-opacity="1" fill-rule="nonzero"/><path fill="#49766b" d="M 14.09375 45.164062 C 14.054688 45.679688 14.015625 46.15625 13.984375 46.613281 C 13.96875 47.074219 13.957031 47.511719 13.945312 47.957031 C 14.65625 46.40625 14.683594 46.453125 14.09375 45.164062 " fill-opacity="1" fill-rule="nonzero"/><g clip-path="url(#e3c8de56aa)"><path fill="#49766b" d="M 52.34375 95.136719 C 53.867188 95.121094 55.390625 95.019531 56.910156 94.855469 C 54.949219 94.460938 53.679688 94.566406 52.34375 95.136719 " fill-opacity="1" fill-rule="nonzero"/></g><g clip-path="url(#0dc89b566a)"><path fill="#49766b" d="M 52.195312 95.140625 L 52.265625 95.167969 C 52.292969 95.15625 52.320312 95.148438 52.34375 95.136719 L 52.195312 95.140625 " fill-opacity="1" fill-rule="nonzero"/></g><path fill="#49766b" d="M 51.085938 89.59375 C 50.066406 89.652344 49.320312 89.753906 47.96875 89.761719 C 49.136719 90.179688 49.792969 90.34375 50.667969 90.597656 C 50.8125 90.246094 50.917969 89.996094 51.085938 89.59375 " fill-opacity="1" fill-rule="nonzero"/><path fill="#49766b" d="M 25.324219 81.332031 C 24.914062 81.039062 24.554688 80.738281 24.207031 80.445312 C 23.863281 80.152344 23.519531 79.882812 23.191406 79.589844 C 24.128906 81.277344 24.148438 81.320312 25.324219 81.332031 " fill-opacity="1" fill-rule="nonzero"/><path fill="#49766b" d="M 22.914062 87.253906 C 23.863281 88.046875 24.804688 88.90625 26.339844 89.21875 C 25.742188 88.8125 25.191406 88.460938 24.691406 88.085938 C 24.1875 87.710938 23.710938 87.355469 23.234375 87 L 22.914062 87.253906 " fill-opacity="1" fill-rule="nonzero"/><path fill="#49766b" d="M 12.027344 65.851562 L 12.066406 65.828125 C 12.066406 65.828125 12.046875 65.816406 12.03125 65.808594 L 12.066406 65.828125 L 12.042969 65.757812 L 12.007812 65.789062 L 12.027344 65.851562 " fill-opacity="1" fill-rule="nonzero"/><path fill="#49766b" d="M 11.421875 66.910156 C 11.699219 67.652344 12.175781 67.898438 12.644531 67.773438 C 12.421875 67.082031 12.195312 66.476562 12.027344 65.851562 C 11.707031 66.042969 11.074219 65.898438 11.421875 66.910156 " fill-opacity="1" fill-rule="nonzero"/><path fill="#49766b" d="M 15.171875 32.457031 C 14.890625 33.175781 14.628906 33.699219 14.394531 34.398438 C 15.292969 33.835938 15.316406 33.875 15.171875 32.457031 " fill-opacity="1" fill-rule="nonzero"/><path fill="#49766b" d="M 59.578125 86.519531 L 59.027344 86.425781 C 58.476562 86.800781 57.8125 87.136719 58.390625 87.710938 C 58.800781 87.328125 59.199219 86.933594 59.578125 86.519531 " fill-opacity="1" fill-rule="nonzero"/><path fill="#49766b" d="M 91.128906 43.292969 C 91.167969 41.976562 91.160156 41.957031 90.355469 40.757812 C 90.511719 42.03125 90.460938 42.886719 91.128906 43.292969 " fill-opacity="1" fill-rule="nonzero"/><path fill="#49766b" d="M 8.078125 68.269531 C 8.496094 69.363281 8.707031 69.914062 8.945312 70.300781 C 9.195312 70.679688 9.453125 70.90625 9.972656 71.339844 C 9.292969 70.351562 8.6875 69.316406 8.078125 68.269531 " fill-opacity="1" fill-rule="nonzero"/><path fill="#49766b" d="M 68.621094 83.078125 C 69.34375 82.671875 69.871094 82.359375 70.386719 82.015625 C 69.660156 82.0625 68.824219 81.761719 68.621094 83.078125 " fill-opacity="1" fill-rule="nonzero"/><path fill="#49766b" d="M 94.714844 53.425781 C 94.800781 52.609375 94.847656 51.785156 94.910156 50.960938 C 94.949219 50.136719 94.957031 49.3125 94.980469 48.488281 L 94.875 48.488281 C 94.859375 49.3125 94.84375 50.132812 94.808594 50.953125 C 94.742188 51.777344 94.699219 52.601562 94.609375 53.417969 L 94.714844 53.425781 " fill-opacity="1" fill-rule="nonzero"/><path fill="#49766b" d="M 34.046875 88.117188 C 34.667969 87.824219 34.800781 87.46875 33.441406 86.550781 C 33.492188 87.21875 32.882812 87.503906 34.046875 88.117188 " fill-opacity="1" fill-rule="nonzero"/><path fill="#49766b" d="M 75.953125 83.257812 C 75.269531 83.535156 74.917969 83.644531 74.480469 83.957031 C 74.042969 84.269531 73.523438 84.785156 72.398438 85.738281 C 73.078125 85.300781 73.6875 84.925781 74.25 84.511719 C 74.8125 84.105469 75.375 83.722656 75.953125 83.257812 " fill-opacity="1" fill-rule="nonzero"/><path fill="#49766b" d="M 15.613281 43.871094 C 15.871094 43.457031 16.09375 43.078125 15.632812 42.398438 C 15.496094 42.976562 15.390625 43.367188 15.332031 43.757812 L 15.613281 43.871094 " fill-opacity="1" fill-rule="nonzero"/><path fill="#49766b" d="M 60.21875 93.875 C 60.539062 93.964844 60.640625 94.027344 60.722656 94.003906 C 61.726562 93.710938 62.734375 93.441406 63.707031 93.078125 L 63.617188 92.902344 C 63.097656 93.089844 62.566406 93.242188 62.011719 93.394531 C 61.449219 93.546875 60.871094 93.738281 60.21875 93.875 " fill-opacity="1" fill-rule="nonzero"/><path fill="#49766b" d="M 50.578125 93.386719 L 50.582031 93.089844 C 49.921875 93.09375 49.265625 93.140625 48.609375 93.113281 L 48.59375 93.363281 C 49.253906 93.40625 49.917969 93.378906 50.578125 93.386719 " fill-opacity="1" fill-rule="nonzero"/><path fill="#49766b" d="M 89.960938 32.460938 C 89.515625 31.613281 89.15625 31.007812 88.5625 30.039062 C 89.152344 31.835938 89.121094 31.828125 89.960938 32.460938 " fill-opacity="1" fill-rule="nonzero"/><path fill="#49766b" d="M 27.847656 20.125 L 27.917969 20.21875 L 29.199219 19.308594 C 29.632812 19.011719 30.078125 18.738281 30.515625 18.453125 L 30.449219 18.359375 C 30.011719 18.644531 29.558594 18.914062 29.128906 19.214844 L 27.847656 20.125 " fill-opacity="1" fill-rule="nonzero"/><path fill="#49766b" d="M 26.398438 23.039062 C 26.773438 22.9375 27.101562 22.816406 27.394531 22.621094 C 27.632812 22.449219 27.867188 22.214844 28.140625 21.976562 C 27.972656 21.6875 27.832031 21.449219 27.695312 21.214844 C 27.730469 21.585938 27.542969 21.882812 27.277344 22.167969 C 27.023438 22.464844 26.683594 22.742188 26.398438 23.039062 " fill-opacity="1" fill-rule="nonzero"/><path fill="#49766b" d="M 27.691406 21.199219 L 27.6875 21.203125 L 27.695312 21.214844 Z M 27.691406 21.199219 " fill-opacity="1" fill-rule="nonzero"/><path fill="#49766b" d="M 54.996094 89.992188 C 54.050781 90.148438 53.472656 90.269531 52.496094 90.375 C 53.636719 90.769531 54.195312 90.515625 54.996094 89.992188 " fill-opacity="1" fill-rule="nonzero"/><path fill="#49766b" d="M 86.054688 25.074219 C 86.316406 25.742188 86.53125 26.425781 86.808594 27.308594 C 87.058594 27.015625 87.179688 26.867188 87.089844 26.582031 C 86.992188 26.304688 86.714844 25.871094 86.054688 25.074219 " fill-opacity="1" fill-rule="nonzero"/><path fill="#49766b" d="M 93.527344 38.054688 C 93.402344 37.578125 93.300781 37.121094 93.125 36.585938 C 92.835938 36.777344 92.628906 36.917969 92.351562 37.105469 C 92.84375 37.480469 93.144531 37.742188 93.527344 38.054688 " fill-opacity="1" fill-rule="nonzero"/><path fill="#49766b" d="M 12.433594 38.609375 C 12.199219 38.691406 11.953125 38.773438 11.617188 38.890625 C 11.769531 39.488281 11.878906 39.945312 11.996094 40.40625 L 12 40.410156 C 12.140625 39.835938 12.242188 39.253906 12.433594 38.609375 " fill-opacity="1" fill-rule="nonzero"/><path fill="#49766b" d="M 59.34375 88.5 C 57.976562 88.625 57.976562 88.625 58.492188 89.355469 C 58.886719 88.960938 59.117188 88.730469 59.34375 88.5 " fill-opacity="1" fill-rule="nonzero"/><path fill="#49766b" d="M 21.519531 77.046875 C 21.21875 76.292969 20.878906 75.75 20.398438 76.269531 C 20.804688 76.582031 21.164062 76.8125 21.519531 77.046875 " fill-opacity="1" fill-rule="nonzero"/><path fill="#49766b" d="M 14.871094 70.378906 C 13.996094 69.324219 13.90625 69.980469 13.734375 70.304688 C 14.070312 70.328125 14.410156 70.351562 14.871094 70.378906 " fill-opacity="1" fill-rule="nonzero"/><path fill="#49766b" d="M 65.542969 86.75 L 65.28125 86.476562 C 64.855469 86.71875 64.417969 86.941406 63.984375 87.179688 L 64.109375 87.375 C 64.585938 87.164062 65.074219 86.980469 65.542969 86.75 " fill-opacity="1" fill-rule="nonzero"/><path fill="#49766b" d="M 37.515625 89.203125 L 37.46875 89.019531 L 36.546875 88.8125 L 35.628906 88.5625 L 35.628906 88.839844 C 36.253906 88.988281 36.882812 89.101562 37.515625 89.203125 " fill-opacity="1" fill-rule="nonzero"/><path fill="#49766b" d="M 70.964844 89.144531 C 70.121094 89.425781 69.300781 89.734375 68.457031 89.972656 C 69.171875 90.289062 70.085938 89.636719 70.964844 89.144531 " fill-opacity="1" fill-rule="nonzero"/><path fill="#49766b" d="M 68.390625 89.945312 L 68.332031 90.011719 L 68.457031 89.972656 C 68.433594 89.964844 68.410156 89.957031 68.390625 89.945312 " fill-opacity="1" fill-rule="nonzero"/><path fill="#49766b" d="M 36.316406 93.035156 C 36.160156 92.976562 35.691406 93.058594 35.695312 93.144531 C 35.703125 93.277344 35.992188 93.46875 36.296875 93.765625 C 36.613281 93.644531 36.964844 93.59375 36.933594 93.492188 C 36.886719 93.355469 36.574219 93.128906 36.316406 93.035156 " fill-opacity="1" fill-rule="nonzero"/><path fill="#49766b" d="M 22.226562 22 C 21.835938 22.515625 21.535156 22.914062 21.230469 23.320312 C 21.605469 22.914062 22.542969 22.753906 22.226562 22 " fill-opacity="1" fill-rule="nonzero"/><path fill="#49766b" d="M 12 40.410156 L 11.996094 40.40625 L 11.992188 40.4375 Z M 12 40.410156 " fill-opacity="1" fill-rule="nonzero"/><path fill="#49766b" d="M 11.992188 40.4375 L 11.941406 40.707031 C 11.96875 40.617188 11.988281 40.527344 11.992188 40.4375 " fill-opacity="1" fill-rule="nonzero"/><path fill="#49766b" d="M 11.660156 43.054688 C 11.75 42.09375 11.855469 41.386719 11.941406 40.707031 C 11.785156 41.371094 11.175781 42.050781 11.660156 43.054688 " fill-opacity="1" fill-rule="nonzero"/><path fill="#49766b" d="M 80.960938 70.148438 C 80.808594 70.4375 80.679688 70.734375 80.539062 71.03125 C 80.777344 70.679688 81.054688 70.359375 81.46875 69.683594 C 81.117188 70.007812 81.007812 70.070312 80.960938 70.148438 " fill-opacity="1" fill-rule="nonzero"/><path fill="#49766b" d="M 91.574219 35.574219 L 91.730469 35.488281 C 91.605469 35.042969 91.441406 34.613281 91.296875 34.171875 L 91.050781 34.265625 C 91.21875 34.703125 91.421875 35.128906 91.574219 35.574219 " fill-opacity="1" fill-rule="nonzero"/><path fill="#49766b" d="M 93.3125 52.128906 C 93.234375 52.203125 93.085938 52.328125 93.085938 52.34375 C 93.136719 52.730469 93.199219 53.113281 93.238281 53.492188 L 93.476562 53.300781 C 93.441406 52.90625 93.367188 52.519531 93.3125 52.128906 " fill-opacity="1" fill-rule="nonzero"/><path fill="#49766b" d="M 79.21875 27.824219 C 79.230469 27.96875 79.203125 28.117188 79.265625 28.253906 C 79.324219 28.371094 79.488281 28.457031 79.609375 28.558594 C 79.59375 28.398438 79.578125 28.234375 79.5625 28.089844 C 79.421875 27.96875 79.316406 27.898438 79.21875 27.824219 " fill-opacity="1" fill-rule="nonzero"/><path fill="#49766b" d="M 81.347656 31.632812 C 81.296875 31.636719 81.34375 31.929688 81.34375 32.089844 L 81.992188 32.40625 L 82.007812 31.730469 C 81.785156 31.6875 81.546875 31.613281 81.347656 31.632812 " fill-opacity="1" fill-rule="nonzero"/><path fill="#49766b" d="M 12.40625 53.304688 L 12.617188 54.074219 L 12.800781 53.941406 L 12.550781 53.207031 L 12.40625 53.304688 " fill-opacity="1" fill-rule="nonzero"/><path fill="#49766b" d="M 87.5625 47.277344 L 87.296875 47.175781 L 87.179688 48.390625 L 87.394531 48.488281 L 87.5625 47.277344 " fill-opacity="1" fill-rule="nonzero"/><path fill="#49766b" d="M 85.308594 36.15625 C 85.425781 36.515625 85.5625 36.871094 85.667969 37.230469 L 85.796875 37.199219 C 85.691406 36.832031 85.558594 36.476562 85.4375 36.113281 L 85.308594 36.15625 " fill-opacity="1" fill-rule="nonzero"/><path fill="#49766b" d="M 86.5 39.847656 C 86.488281 40.210938 86.488281 40.570312 86.464844 40.929688 L 86.710938 41.058594 C 86.738281 40.691406 86.734375 40.332031 86.738281 39.964844 L 86.5 39.847656 " fill-opacity="1" fill-rule="nonzero"/><path fill="#49766b" d="M 57.910156 11.035156 C 58.070312 11.136719 58.222656 11.253906 58.410156 11.332031 C 58.445312 11.351562 58.609375 11.242188 58.71875 11.1875 C 58.554688 11.09375 58.390625 10.996094 58.234375 10.902344 C 58.097656 10.957031 58.003906 10.996094 57.910156 11.035156 " fill-opacity="1" fill-rule="nonzero"/><path fill="#49766b" d="M 62.609375 92.382812 C 62.644531 92.453125 62.6875 92.585938 62.714844 92.582031 C 63.121094 92.464844 63.519531 92.320312 63.925781 92.1875 L 63.851562 92.003906 C 63.433594 92.132812 63.023438 92.269531 62.609375 92.382812 " fill-opacity="1" fill-rule="nonzero"/><path fill="#49766b" d="M 90.359375 28.589844 L 90.410156 28.515625 L 89.917969 27.753906 L 89.828125 27.902344 L 90.359375 28.589844 " fill-opacity="1" fill-rule="nonzero"/><path fill="#49766b" d="M 24.449219 85.058594 L 23.519531 84.660156 L 23.519531 84.808594 C 23.828125 84.96875 24.136719 85.140625 24.457031 85.289062 L 24.449219 85.058594 " fill-opacity="1" fill-rule="nonzero"/><path fill="#49766b" d="M 37.765625 90.066406 C 37.625 90.109375 37.535156 90.191406 37.429688 90.261719 C 37.675781 90.285156 37.925781 90.320312 38.421875 90.359375 C 38.003906 90.179688 37.800781 90.050781 37.765625 90.066406 " fill-opacity="1" fill-rule="nonzero"/><path fill="#49766b" d="M 32.769531 87.984375 C 32.519531 87.867188 32.277344 87.730469 32.035156 87.59375 L 31.941406 87.707031 C 32.183594 87.835938 32.433594 87.964844 32.6875 88.078125 L 32.769531 87.984375 " fill-opacity="1" fill-rule="nonzero"/><path fill="#49766b" d="M 84.671875 68.945312 C 84.671875 68.890625 84.519531 68.9375 84.441406 68.9375 C 84.386719 69.117188 84.328125 69.300781 84.277344 69.472656 C 84.402344 69.484375 84.484375 69.492188 84.566406 69.5 C 84.605469 69.3125 84.667969 69.109375 84.671875 68.945312 " fill-opacity="1" fill-rule="nonzero"/><path fill="#49766b" d="M 79.410156 74.09375 L 78.816406 74.355469 L 78.789062 74.480469 L 79.328125 74.363281 L 79.410156 74.09375 " fill-opacity="1" fill-rule="nonzero"/><path fill="#49766b" d="M 74.429688 79.378906 C 74.5 79.25 74.488281 79.121094 74.507812 78.996094 C 74.394531 79.085938 74.242188 79.160156 74.160156 79.25 C 74.089844 79.332031 74.101562 79.441406 74.078125 79.535156 C 74.199219 79.484375 74.40625 79.425781 74.429688 79.378906 " fill-opacity="1" fill-rule="nonzero"/><path fill="#49766b" d="M 53.859375 10.140625 L 54.761719 10.574219 L 54.957031 10.425781 L 54.027344 10.011719 L 53.859375 10.140625 " fill-opacity="1" fill-rule="nonzero"/><path fill="#49766b" d="M 86.851562 44.757812 L 86.808594 45.070312 L 87.28125 45.28125 L 87.3125 45.027344 L 86.851562 44.757812 " fill-opacity="1" fill-rule="nonzero"/><path fill="#49766b" d="M 12.378906 58.269531 C 12.433594 58.375 12.527344 58.476562 12.601562 58.496094 C 12.640625 58.507812 12.664062 58.359375 12.699219 58.28125 C 12.601562 58.164062 12.507812 58.042969 12.386719 57.902344 C 12.375 58.078125 12.351562 58.207031 12.378906 58.269531 " fill-opacity="1" fill-rule="nonzero"/><path fill="#49766b" d="M 23.925781 20.953125 L 23.191406 21.46875 L 23.324219 21.652344 C 23.441406 21.585938 23.59375 21.535156 23.65625 21.449219 C 23.773438 21.296875 23.835938 21.121094 23.925781 20.953125 " fill-opacity="1" fill-rule="nonzero"/><path fill="#49766b" d="M 12.632812 41.855469 L 12.460938 41.824219 L 12.242188 42.746094 L 12.460938 42.800781 L 12.632812 41.855469 " fill-opacity="1" fill-rule="nonzero"/><path fill="#49766b" d="M 86.1875 47.089844 C 86.199219 47.007812 86.117188 46.890625 86.074219 46.785156 L 85.90625 47.011719 L 86.027344 47.324219 C 86.082031 47.25 86.175781 47.1875 86.1875 47.089844 " fill-opacity="1" fill-rule="nonzero"/><path fill="#49766b" d="M 84.542969 38.464844 C 84.632812 38.796875 84.746094 39.125 84.820312 39.460938 L 84.875 39.449219 C 84.8125 39.113281 84.710938 38.785156 84.632812 38.453125 L 84.542969 38.464844 " fill-opacity="1" fill-rule="nonzero"/><path fill="#49766b" d="M 18.84375 32.59375 L 19.410156 32.554688 C 19.445312 32.460938 19.484375 32.371094 19.519531 32.285156 L 19.0625 32.078125 C 18.976562 32.242188 18.914062 32.421875 18.84375 32.59375 " fill-opacity="1" fill-rule="nonzero"/><g fill="#49766b" fill-opacity="1"><g transform="translate(19.599609, 76.124998)"><g><path d="M 19.359375 -44.484375 L 18.875 -42.953125 C 18.5 -41.566406 18.3125 -40.898438 18.3125 -40.953125 L 17.046875 -37.203125 L 16.796875 -37.203125 C 16.898438 -36.984375 16.984375 -36.820312 17.046875 -36.71875 C 17.046875 -36.507812 17.003906 -36.347656 16.921875 -36.234375 C 16.835938 -36.128906 16.796875 -35.972656 16.796875 -35.765625 L 16.484375 -35.765625 L 16.234375 -34.078125 L 16.15625 -34.078125 L 16.15625 -33.765625 L 16.234375 -33.59375 C 16.234375 -33.382812 16.101562 -32.988281 15.84375 -32.40625 L 15.59375 -32.3125 C 15.65625 -31.40625 15.578125 -30.53125 15.359375 -29.6875 L 14.953125 -29.59375 C 14.953125 -28.632812 14.796875 -27.863281 14.484375 -27.28125 L 14.078125 -27.28125 L 13.921875 -27.125 L 14.234375 -27.046875 L 14.3125 -27.125 C 14.3125 -26.582031 14.234375 -26.148438 14.078125 -25.828125 C 13.921875 -25.515625 13.84375 -25.28125 13.84375 -25.125 L 14.078125 -25.203125 L 14 -24.3125 L 13.765625 -24.40625 L 13.515625 -24.15625 L 14 -24.15625 L 13.515625 -23.6875 L 13.6875 -23.4375 L 13.6875 -23.359375 L 13.359375 -23.4375 L 13.515625 -22.875 L 13.359375 -22.71875 L 13.4375 -22.5625 L 13.84375 -22.234375 C 13.625 -22.078125 13.488281 -21.796875 13.4375 -21.390625 C 13.382812 -20.992188 13.332031 -20.664062 13.28125 -20.40625 C 13.226562 -19.757812 13.039062 -18.984375 12.71875 -18.078125 L 12.5625 -18 L 12.640625 -17.84375 L 12.5625 -17.59375 L 12.640625 -17.28125 L 12.484375 -17.203125 C 12.585938 -16.878906 12.613281 -16.664062 12.5625 -16.5625 C 12.5625 -16.34375 12.476562 -16.234375 12.3125 -16.234375 C 12.3125 -16.234375 12.207031 -15.914062 12 -15.28125 L 12.078125 -16 L 11.84375 -15.921875 C 11.84375 -15.597656 11.789062 -15.222656 11.6875 -14.796875 L 11.359375 -15.046875 L 11.28125 -14.796875 L 11.28125 -13.046875 L 11.125 -13.359375 L 11.046875 -13.359375 L 10.640625 -10.640625 L 10.15625 -8.953125 L 10.484375 -8.5625 L 10.078125 -8.71875 L 9.84375 -8.40625 L 10 -8.71875 L 9.84375 -8.875 C 9.789062 -8.71875 9.707031 -8.410156 9.59375 -7.953125 C 9.488281 -7.503906 9.382812 -7.171875 9.28125 -6.953125 L 9.125 -7.046875 L 8.5625 -5.4375 L 8.484375 -5.359375 L 8.484375 -5.6875 L 8.078125 -5.6875 L 7.765625 -4.40625 C 7.597656 -4.71875 7.515625 -5.035156 7.515625 -5.359375 C 7.515625 -5.628906 7.570312 -5.84375 7.6875 -6 C 7.738281 -6.476562 7.738281 -6.796875 7.6875 -6.953125 C 7.625 -6.898438 7.539062 -6.71875 7.4375 -6.40625 L 7.359375 -5.765625 L 7.046875 -5.125 C 6.929688 -4.644531 6.875 -4.320312 6.875 -4.15625 L 6.875 -4.40625 L 6.71875 -4.15625 C 6.613281 -4.320312 6.535156 -4.585938 6.484375 -4.953125 L 6.15625 -4 L 6.234375 -4.40625 L 6 -4.40625 L 5.765625 -4.875 C 5.921875 -5.039062 6 -5.175781 6 -5.28125 C 6 -5.382812 6.023438 -5.546875 6.078125 -5.765625 L 5.765625 -5.765625 L 5.765625 -4.875 L 5.515625 -4.078125 L 5.6875 -5.921875 L 5.4375 -5.921875 C 5.382812 -5.972656 5.4375 -6.078125 5.59375 -6.234375 L 5.59375 -6 C 5.59375 -6.101562 5.617188 -6.273438 5.671875 -6.515625 C 5.734375 -6.753906 5.789062 -6.957031 5.84375 -7.125 C 5.625 -7.125 5.539062 -7.097656 5.59375 -7.046875 L 5.359375 -7.125 L 5.59375 -8.3125 L 5.59375 -7.515625 L 5.84375 -7.515625 L 5.84375 -8.078125 L 5.921875 -8.078125 C 5.921875 -8.234375 5.945312 -8.414062 6 -8.625 C 6.050781 -8.84375 6.050781 -9.085938 6 -9.359375 L 5.84375 -8.953125 L 5.6875 -9.046875 C 5.789062 -9.148438 5.867188 -9.304688 5.921875 -9.515625 C 5.972656 -9.734375 6 -9.894531 6 -10 L 6 -10.3125 L 6.15625 -10.5625 L 6.15625 -11.046875 L 6.234375 -11.28125 L 6.234375 -12.234375 C 6.347656 -12.453125 6.457031 -12.988281 6.5625 -13.84375 L 6.234375 -13.84375 L 6.15625 -14.15625 C 6.15625 -14.75 6.265625 -15.175781 6.484375 -15.4375 C 6.535156 -15.539062 6.597656 -15.617188 6.671875 -15.671875 C 6.753906 -15.734375 6.796875 -15.789062 6.796875 -15.84375 L 6.796875 -16.15625 L 6.640625 -16.3125 L 6.484375 -15.59375 L 6.71875 -17.125 L 6.796875 -16.953125 C 6.847656 -17.015625 6.875 -17.125 6.875 -17.28125 L 6.796875 -17.921875 L 7.046875 -18.078125 C 6.929688 -18.179688 6.847656 -18.34375 6.796875 -18.5625 C 6.796875 -18.882812 6.957031 -19.125 7.28125 -19.28125 L 6.953125 -19.4375 L 7.203125 -20.234375 L 7.359375 -19.921875 L 7.359375 -20.5625 L 7.4375 -20.875 L 7.203125 -20.953125 L 7.765625 -23.6875 L 7.921875 -23.765625 L 7.765625 -23.84375 L 7.921875 -24.796875 L 8.15625 -24.875 L 8.234375 -25.359375 L 8.15625 -25.125 L 8.078125 -25.203125 C 8.128906 -25.628906 8.195312 -26.203125 8.28125 -26.921875 C 8.363281 -27.640625 8.484375 -28 8.640625 -28 C 8.535156 -28.050781 8.484375 -28.15625 8.484375 -28.3125 L 8.71875 -29.6875 C 8.9375 -30.53125 9.097656 -31.007812 9.203125 -31.125 C 9.304688 -31.226562 9.410156 -31.785156 9.515625 -32.796875 C 9.359375 -32.640625 8.984375 -31.203125 8.390625 -28.484375 C 7.804688 -25.765625 7.539062 -24.320312 7.59375 -24.15625 C 7.539062 -23.945312 7.34375 -22.960938 7 -21.203125 C 6.65625 -19.441406 6.507812 -18.453125 6.5625 -18.234375 C 6.664062 -18.234375 6.632812 -17.753906 6.46875 -16.796875 C 6.3125 -15.835938 6.179688 -15.304688 6.078125 -15.203125 C 6.078125 -14.984375 6.023438 -14.5 5.921875 -13.75 C 5.816406 -13.007812 5.765625 -12.289062 5.765625 -11.59375 L 5.359375 -9.4375 C 5.410156 -10.132812 5.503906 -11.03125 5.640625 -12.125 C 5.773438 -13.21875 5.894531 -14.191406 6 -15.046875 L 6.40625 -17.59375 C 6.613281 -19.78125 6.796875 -21.144531 6.953125 -21.6875 L 7.125 -21.6875 C 7.5 -24.5625 7.738281 -26.238281 7.84375 -26.71875 C 7.945312 -26.988281 8.15625 -27.851562 8.46875 -29.3125 C 8.789062 -30.78125 8.953125 -31.863281 8.953125 -32.5625 C 8.742188 -32.5625 7.410156 -33.28125 4.953125 -34.71875 C 3.785156 -35.726562 3.203125 -36.34375 3.203125 -36.5625 C 3.359375 -36.664062 3.515625 -36.785156 3.671875 -36.921875 C 3.835938 -37.054688 4.023438 -37.175781 4.234375 -37.28125 L 11.359375 -45.125 C 11.785156 -45.550781 12.078125 -46.066406 12.234375 -46.671875 C 12.398438 -47.285156 12.535156 -47.675781 12.640625 -47.84375 L 12.875 -47.765625 L 12.953125 -47.921875 L 13.59375 -47.921875 C 13.8125 -47.921875 14.160156 -47.785156 14.640625 -47.515625 L 19.515625 -45.4375 C 19.628906 -45.226562 19.6875 -44.828125 19.6875 -44.234375 Z M 7.359375 -20.71875 L 7.359375 -20.5625 L 7.203125 -20.5625 Z M 6.234375 -13.046875 L 6.234375 -13.84375 Z M 6.15625 -12.796875 C 6 -12.847656 6.023438 -12.929688 6.234375 -13.046875 C 6.179688 -12.984375 6.15625 -12.898438 6.15625 -12.796875 Z M 5.046875 -7.359375 C 5.097656 -7.410156 5.203125 -8.101562 5.359375 -9.4375 L 5.515625 -9.28125 L 5.203125 -7.046875 C 5.148438 -7.253906 5.097656 -7.359375 5.046875 -7.359375 Z M 7.921875 -8.953125 L 7.765625 -8.953125 C 7.597656 -8.691406 7.597656 -8.398438 7.765625 -8.078125 Z M 8.953125 -8.078125 L 8.796875 -8.078125 L 8.71875 -7.515625 L 8.953125 -7.515625 Z M 5.203125 -7.046875 C 5.203125 -6.503906 5.039062 -5.351562 4.71875 -3.59375 C 4.820312 -4.925781 4.898438 -5.648438 4.953125 -5.765625 Z M 6.40625 -5.59375 C 6.238281 -5.4375 6.140625 -5.238281 6.109375 -5 C 6.085938 -4.757812 6.128906 -4.5625 6.234375 -4.40625 Z M 6.40625 -5.59375 "/></g></g></g><g fill="#49766b" fill-opacity="1"><g transform="translate(42.477389, 76.124998)"><g><path d="M 16.640625 -47.4375 C 17.546875 -47.4375 19.332031 -47.25 22 -46.875 C 23.007812 -46.613281 24.019531 -46.253906 25.03125 -45.796875 C 26.050781 -45.347656 26.800781 -44.9375 27.28125 -44.5625 L 27.84375 -43.921875 L 28.3125 -43.84375 C 29.007812 -42.882812 29.460938 -42.132812 29.671875 -41.59375 C 29.890625 -41.0625 30.101562 -40.179688 30.3125 -38.953125 L 30.484375 -39.046875 L 30.484375 -38.3125 L 30.640625 -37.921875 C 30.640625 -37.703125 30.5625 -37.488281 30.40625 -37.28125 L 30.71875 -36.3125 C 30.71875 -35.78125 30.640625 -35.222656 30.484375 -34.640625 L 30.640625 -34.40625 C 30.265625 -34.1875 30.15625 -33.945312 30.3125 -33.6875 L 30.5625 -33.59375 C 30.507812 -33.488281 30.453125 -33.410156 30.390625 -33.359375 C 30.335938 -33.304688 30.3125 -33.253906 30.3125 -33.203125 L 30.3125 -32.953125 L 30.234375 -32.640625 L 30.3125 -31.765625 L 30.40625 -31.6875 C 30.082031 -30.082031 29.921875 -29.171875 29.921875 -28.953125 L 29.4375 -26.40625 C 29.332031 -26.289062 29.160156 -25.566406 28.921875 -24.234375 C 28.679688 -22.898438 28.535156 -22.078125 28.484375 -21.765625 L 28.3125 -21.59375 L 28.15625 -21.203125 L 28.234375 -21.125 C 28.179688 -20.582031 28.078125 -20.179688 27.921875 -19.921875 L 27.6875 -19.921875 C 27.6875 -19.648438 27.628906 -19.394531 27.515625 -19.15625 C 27.410156 -18.914062 27.332031 -18.71875 27.28125 -18.5625 L 27.125 -18.484375 L 27.359375 -18.3125 C 27.304688 -18.207031 27.253906 -18.046875 27.203125 -17.828125 C 27.148438 -17.617188 27.066406 -17.515625 26.953125 -17.515625 C 26.847656 -17.410156 26.726562 -17.117188 26.59375 -16.640625 C 26.46875 -16.160156 26.375 -15.734375 26.3125 -15.359375 L 26.234375 -15.28125 C 25.867188 -14.21875 25.65625 -13.738281 25.59375 -13.84375 L 24.15625 -10 L 24.078125 -9.921875 L 22.796875 -7.359375 L 22.5625 -7.28125 C 22.507812 -7.175781 22.398438 -6.945312 22.234375 -6.59375 C 22.078125 -6.25 21.863281 -5.945312 21.59375 -5.6875 L 21.125 -5.359375 L 20.875 -5.28125 C 20.613281 -5.125 20.210938 -4.882812 19.671875 -4.5625 C 19.140625 -4.238281 18.617188 -3.984375 18.109375 -3.796875 C 17.609375 -3.609375 16.957031 -3.515625 16.15625 -3.515625 C 14.507812 -3.515625 13.046875 -3.675781 11.765625 -4 C 10.484375 -4.320312 8.910156 -4.988281 7.046875 -6 C 6.023438 -6.800781 5.207031 -7.664062 4.59375 -8.59375 C 3.988281 -9.53125 3.628906 -10.742188 3.515625 -12.234375 C 3.359375 -13.359375 3.253906 -14.75 3.203125 -16.40625 C 3.203125 -17.144531 3.226562 -18.265625 3.28125 -19.765625 C 3.4375 -22.429688 3.6875 -24.773438 4.03125 -26.796875 C 4.382812 -28.828125 5.015625 -31.519531 5.921875 -34.875 C 6.078125 -35.78125 6.25 -36.488281 6.4375 -37 C 6.625 -37.507812 6.90625 -38.054688 7.28125 -38.640625 C 7.914062 -39.867188 8.367188 -40.9375 8.640625 -41.84375 C 8.796875 -41.894531 9.085938 -41.84375 9.515625 -41.6875 L 9.6875 -41.84375 L 10.15625 -41.6875 C 10.476562 -41.570312 10.742188 -41.515625 10.953125 -41.515625 C 11.171875 -41.515625 11.46875 -41.410156 11.84375 -41.203125 L 12.078125 -40.953125 C 12.660156 -40.847656 13.085938 -40.769531 13.359375 -40.71875 C 13.734375 -40.1875 13.921875 -39.867188 13.921875 -39.765625 C 13.921875 -39.710938 13.773438 -39.617188 13.484375 -39.484375 C 13.191406 -39.347656 13.046875 -38.929688 13.046875 -38.234375 L 9.765625 -22.5625 C 9.710938 -22.5625 9.578125 -21.382812 9.359375 -19.03125 C 9.148438 -16.6875 9.070312 -15.382812 9.125 -15.125 L 9.921875 -9.765625 L 9.765625 -9.6875 C 9.867188 -9.519531 9.957031 -9.351562 10.03125 -9.1875 C 10.113281 -9.03125 10.207031 -8.875 10.3125 -8.71875 C 10.632812 -7.8125 11.460938 -6.851562 12.796875 -5.84375 L 13.28125 -5.359375 L 15.515625 -6.640625 C 15.679688 -7.015625 15.976562 -7.492188 16.40625 -8.078125 C 16.832031 -8.660156 17.125 -9.195312 17.28125 -9.6875 C 17.757812 -10.644531 18.53125 -12.519531 19.59375 -15.3125 C 20.664062 -18.113281 21.332031 -20.050781 21.59375 -21.125 C 21.863281 -22.132812 22.210938 -23.253906 22.640625 -24.484375 C 22.847656 -25.285156 23.070312 -26.148438 23.3125 -27.078125 C 23.5625 -28.015625 23.710938 -29.015625 23.765625 -30.078125 C 24.191406 -30.128906 24.347656 -31.675781 24.234375 -34.71875 L 24.078125 -38.5625 C 24.296875 -38.289062 24.429688 -38.207031 24.484375 -38.3125 C 24.535156 -38.425781 24.507812 -38.75 24.40625 -39.28125 C 24.40625 -39.914062 24.082031 -41.171875 23.4375 -43.046875 L 23.28125 -43.046875 L 23.203125 -43.203125 L 23.359375 -43.203125 C 23.304688 -43.410156 23 -43.753906 22.4375 -44.234375 C 21.875 -44.710938 21.351562 -45.140625 20.875 -45.515625 L 20.15625 -45.515625 L 19.765625 -45.4375 C 19.546875 -45.4375 19.117188 -45.117188 18.484375 -44.484375 L 17.765625 -43.6875 L 17.6875 -43.84375 C 17.519531 -43.675781 17.410156 -43.59375 17.359375 -43.59375 L 17.125 -43.28125 L 16.953125 -43.28125 L 16.71875 -43.359375 L 15.921875 -42.796875 L 15.765625 -42.875 L 15.125 -42.484375 L 15.125 -42.5625 L 14.640625 -42.3125 L 14.40625 -42.5625 L 13.59375 -42.3125 L 13.359375 -42.3125 L 13.28125 -42.234375 C 12.90625 -42.285156 12.582031 -42.207031 12.3125 -42 L 12.3125 -42.484375 L 12 -42.234375 L 11.921875 -42.3125 L 12 -42.875 C 11.675781 -42.875 11.300781 -42.6875 10.875 -42.3125 L 11.84375 -43.84375 L 11.515625 -43.84375 L 12.796875 -45.515625 L 12.71875 -45.59375 L 13.125 -46.3125 C 13.125 -46.3125 13.363281 -46.523438 13.84375 -46.953125 C 13.894531 -47.066406 14.109375 -47.175781 14.484375 -47.28125 C 14.691406 -47.382812 15.007812 -47.4375 15.4375 -47.4375 Z M 16.640625 -47.4375 "/></g></g></g></svg>
