<svg aria-label="Hbo" role="presentation" preserveAspectRatio="xMidYMid meet" height="100%" width="100%"
     viewBox="0 0 40 40" xmlns="http://www.w3.org/2000/svg"><g fill="none" fill-rule="evenodd"><path fill="#FFFFFF" fill-rule="nonzero" d="M14.475 22.5c1.732 0 3.14 1.042 3.181 2.998 0 .008.008.015 0 .023v5.09a.127.127 0 0 1-.13.126h-.712a.753.753 0 0 1-.76-.747V25.52c-.025-.97-.73-1.478-1.587-1.478-.859 0-1.555.508-1.587 1.478v5.09a.127.127 0 0 1-.13.126h-.712a.753.753 0 0 1-.761-.747V25.52c-.025-.97-.729-1.478-1.587-1.478s-1.555.508-1.587 1.478v5.09a.127.127 0 0 1-.13.126h-.712a.753.753 0 0 1-.761-.747v-4.484c.049-1.964 1.457-3.006 3.19-3.006.955 0 1.805.31 2.396.922.583-.612 1.433-.922 2.389-.922zm12.751 0a.99.99 0 0 1 .818.445l1.319 1.99c.166.26.54.26.714 0l1.319-1.99a.99.99 0 0 1 .818-.445h1.191c.08 0 .12.08.08.138l-2.351 3.552a.784.784 0 0 0 0 .85l2.35 3.552a.095.095 0 0 1-.079.145h-1.191a.99.99 0 0 1-.818-.445l-1.319-1.99a.426.426 0 0 0-.714 0l-1.319 1.99a.99.99 0 0 1-.818.445h-1.191c-.08 0-.12-.08-.08-.145l2.351-3.544a.784.784 0 0 0 0-.85l-2.35-3.552a.095.095 0 0 1 .079-.146zm-5.462 0c.854 0 1.637.238 2.267.714a.743.743 0 0 1 .727-.587h.702c.064 0 .12.055.12.119v7.833a.126.126 0 0 1-.128.127h-.702a.739.739 0 0 1-.743-.674c-.622.467-1.405.705-2.25.705-2.06 0-3.737-1.427-3.737-4.122 0-2.696 1.668-4.123 3.744-4.115zm-.144 1.79c-1.196 0-2.16.87-2.16 2.508s.972 2.507 2.16 2.507c1.196 0 2.16-.87 2.16-2.507 0-1.638-.964-2.507-2.16-2.507zM9.454 9v4.14h1.869V9h2.891v11.09h-2.891v-4.304H9.454v4.292H6.5V9h2.954zm18.587 0c3.006 0 5.459 2.401 5.459 5.518 0 3.052-2.453 5.571-5.46 5.571-3.048 0-4.534-2.22-4.949-3.116 0 1.43-1.338 3.063-3.24 3.063H15.18V9.17h5.013c1.55 0 2.889 1.611 2.889 2.956C23.452 11.231 24.992 9 28.04 9zm-8.875 6.75H17.59v1.929h1.577c.462 0 .834-.438.834-.976 0-.504-.372-.953-.834-.953zm8.805-3.857a2.642 2.642 0 0 0-2.667 2.641 2.657 2.657 0 0 0 2.656 2.662 2.653 2.653 0 0 0 2.647-2.62 2.644 2.644 0 0 0-2.636-2.683zm-.01.482c1.172 0 2.164.96 2.164 2.164a2.182 2.182 0 0 1-2.164 2.175 2.17 2.17 0 0 1-2.175-2.175c0-1.204.97-2.164 2.175-2.164zm-5.55 1.446c-.19.228-.667.62-.965.641.298.052.757.465.965.806-.072-.28-.072-1.168 0-1.447zm-3.245-2.41H17.59v1.928h1.577c.462 0 .834-.453.834-.964 0-.51-.372-.964-.834-.964z"></path></g></svg>
