<svg aria-label="Logo" role="presentation" preserveAspectRatio="xMidYMid meet" height="100%" width="100%"
     viewBox="0 0 112 37" xmlns="http://www.w3.org/2000/svg"><path fill="#ffffff" fill-rule="evenodd" d="M16.427 32l3.22-15.237c-1.067-.492-2.041-.848-2.923-1.067-.882-.218-1.78-.369-2.697-.45a69.297 69.297 0 0 0-2.184 5.27 74.54 74.54 0 0 0-1.722 5.26 51.332 51.332 0 0 0-1.139 4.788c-.273 1.49-.41 2.783-.41 3.876 0 .67.058 1.18.175 1.528.116.349.25.619.4.81-.561 0-1.166-.027-1.815-.082a5.037 5.037 0 0 1-1.826-.502c-.567-.28-1.039-.721-1.415-1.323-.376-.601-.564-1.45-.564-2.543 0-.93.147-2.044.441-3.343a34.499 34.499 0 0 1 1.261-4.193 62.848 62.848 0 0 1 1.949-4.697 57.463 57.463 0 0 1 2.522-4.85c-1.326.082-2.41.284-3.25.605-.841.321-1.398.844-1.672 1.569.11 0 .23.14.36.42.13.28.194.578.194.892 0 .506-.229.906-.687 1.2-.458.294-1.015.441-1.671.441-.37 0-.711-.051-1.026-.154a2.39 2.39 0 0 1-.82-.45 2.1 2.1 0 0 1-.554-.76 2.63 2.63 0 0 1-.205-1.076c0-.711.215-1.381.646-2.01.43-.629 1.029-1.176 1.795-1.64.765-.466 1.671-.835 2.717-1.108 1.046-.274 2.184-.41 3.414-.41.575 0 1.306.04 2.195.123a55.037 55.037 0 0 1 3.384-4.768c1.189-1.497 2.413-2.81 3.67-3.938 1.258-1.128 2.523-2.023 3.794-2.686C23.256.832 24.507.5 25.737.5c.492 0 1.043.041 1.651.123.609.082 1.166.24 1.672.472L22.477 32h-6.05zm6.05-28.526c-.63.341-1.269.83-1.918 1.466a18.184 18.184 0 0 0-1.928 2.256 35.99 35.99 0 0 0-1.897 2.891 53.047 53.047 0 0 0-1.825 3.353c.848.164 1.71.366 2.584.605.875.24 1.723.523 2.543.851l2.44-11.422zm58.095 26.22a7.935 7.935 0 0 1-1.391 1.24 7.564 7.564 0 0 1-1.518.82 6.676 6.676 0 0 1-1.415.39 8.277 8.277 0 0 1-1.23.102c-1.204 0-2.16-.331-2.872-.995-.71-.663-1.141-1.657-1.292-2.983-.533.86-1.073 1.551-1.62 2.07-.547.52-1.087.924-1.62 1.21a5.195 5.195 0 0 1-1.558.565 8.207 8.207 0 0 1-1.415.133 5.302 5.302 0 0 1-1.764-.287 3.675 3.675 0 0 1-1.425-.902c-.404-.41-.722-.93-.954-1.559a5.297 5.297 0 0 1-.257-1.01c-.274.388-.554.739-.84 1.051a8.314 8.314 0 0 1-1.62 1.395 8.337 8.337 0 0 1-1.61.82 7.376 7.376 0 0 1-1.487.39 8.896 8.896 0 0 1-1.261.102 5.302 5.302 0 0 1-1.764-.287 3.675 3.675 0 0 1-1.425-.902c-.403-.41-.721-.93-.954-1.559a5.227 5.227 0 0 1-.245-.938c-.245.36-.495.686-.75.98a8.146 8.146 0 0 1-1.527 1.394 7.564 7.564 0 0 1-1.518.82 6.676 6.676 0 0 1-1.415.39 8.277 8.277 0 0 1-1.23.102c-1.203 0-2.16-.331-2.871-.995-.711-.663-1.142-1.657-1.292-2.983-.534.86-1.074 1.551-1.62 2.07-.547.52-1.087.924-1.62 1.21a5.195 5.195 0 0 1-1.56.565 8.207 8.207 0 0 1-1.414.133 5.302 5.302 0 0 1-1.764-.287 3.675 3.675 0 0 1-1.425-.902c-.404-.41-.721-.93-.954-1.559-.232-.629-.348-1.388-.348-2.276 0-.383.027-.804.082-1.262.054-.458.136-.953.246-1.486L30.905 11h6.05L33.94 25.273a6.509 6.509 0 0 0-.123 1.19c0 .478.09.885.267 1.22.178.335.506.503.984.503.41 0 .786-.093 1.128-.277.342-.185.653-.441.933-.77.28-.327.527-.72.739-1.179.212-.458.4-.953.564-1.486L41.282 11h6.05l-3.015 14.273a4.243 4.243 0 0 0-.143.687 5.536 5.536 0 0 0-.041.667c0 .588.14.995.42 1.22.28.226.715.339 1.302.339.41 0 .79-.093 1.139-.277.348-.185.666-.441.953-.77.287-.327.54-.72.76-1.179.218-.458.402-.953.553-1.486l2.522-11.792h-1.394L50.736 11h1.374l1.272-5.804 6.214-.84L58.16 11h2.523l-.329 1.682h-2.522l-2.686 12.591a3.582 3.582 0 0 0-.134.687 7.36 7.36 0 0 0-.03.667c0 .588.136.995.41 1.22.273.226.704.339 1.292.339.41 0 .81-.093 1.2-.277.389-.185.748-.441 1.076-.77.328-.327.622-.72.882-1.179.26-.458.471-.953.636-1.486L63.328 11h6.05l-3.015 14.273a6.509 6.509 0 0 0-.123 1.19c0 .478.09.885.267 1.22.178.335.506.503.984.503.41 0 .786-.093 1.128-.277.342-.185.653-.441.933-.77.28-.327.527-.72.739-1.179.211-.458.4-.953.563-1.486L73.705 11h6.05L76.74 25.273a4.243 4.243 0 0 0-.143.687 5.536 5.536 0 0 0-.041.667c0 .588.14.995.42 1.22.28.226.714.339 1.302.339.41 0 .79-.093 1.139-.277.348-.185.666-.441.953-.77.287-.327.54-.72.759-1.179.21-.44.388-.914.535-1.423L84.534 11h6.049l-.451 2.174a7.523 7.523 0 0 1 1.353-1.22 6.72 6.72 0 0 1 1.333-.718 5.91 5.91 0 0 1 1.272-.349c.41-.061.8-.092 1.169-.092.547 0 1.06.065 1.538.195s.902.338 1.271.625c.37.287.684.66.944 1.118.26.458.444 1.015.553 1.671.506-.779 1.026-1.404 1.559-1.876.533-.472 1.053-.83 1.559-1.077a5.55 5.55 0 0 1 1.456-.492 7.37 7.37 0 0 1 1.271-.123c.67 0 1.289.089 1.856.267.567.177 1.06.458 1.477.84.417.383.741.875.974 1.477.232.601.348 1.32.348 2.153 0 .56-.05 1.166-.153 1.815a41.277 41.277 0 0 1-.851 4.01c-.178.67-.339 1.312-.482 1.927a47.793 47.793 0 0 0-.37 1.713 7.359 7.359 0 0 0-.153 1.384c0 .52.12.943.359 1.271.239.328.68.493 1.322.493.67 0 1.135-.09 1.395-.267-.096.766-.287 1.418-.574 1.958s-.64.988-1.057 1.344a4.02 4.02 0 0 1-1.394.779 5.25 5.25 0 0 1-1.61.246c-.807 0-1.48-.133-2.02-.4a3.524 3.524 0 0 1-1.302-1.066 4.168 4.168 0 0 1-.697-1.518 7.459 7.459 0 0 1-.206-1.753c0-.711.1-1.542.298-2.492.198-.95.413-1.924.646-2.922.232-.998.448-1.962.646-2.892.198-.93.297-1.73.297-2.4 0-1.435-.506-2.153-1.517-2.153-.383 0-.739.103-1.067.308a3.537 3.537 0 0 0-.902.83c-.274.35-.52.76-.738 1.231-.22.472-.41.974-.575 1.507L96.51 32h-6.05l3.076-14.499a4.3 4.3 0 0 0 .062-1.743 1.754 1.754 0 0 0-.216-.585 1.246 1.246 0 0 0-.39-.41c-.157-.102-.358-.154-.604-.154-.41 0-.79.103-1.138.308a3.401 3.401 0 0 0-.944.84c-.28.356-.53.773-.748 1.252-.22.478-.41.984-.575 1.517L86.133 32h-6.05l.489-2.307z"></path></svg>
