<svg role="presentation" width="16" height="16" viewBox="0 0 16 16" xmlns="http://www.w3.org/2000/svg"
     class="desktop-navigation__SearchIcon-y9xccb-6 eTLqkL"><path d="M15.212 14.573l-3.808-3.96A6.44 6.44 0 0 0 12.92 6.46 6.467 6.467 0 0 0 6.46 0 6.467 6.467 0 0 0 0 6.46a6.467 6.467 0 0 0 6.46 6.46 6.39 6.39 0 0 0 3.701-1.169l3.837 3.99a.838.838 0 0 0 1.191.023.844.844 0 0 0 .023-1.19zM6.46 1.685a4.78 4.78 0 0 1 4.775 4.775 4.78 4.78 0 0 1-4.775 4.775A4.78 4.78 0 0 1 1.685 6.46 4.78 4.78 0 0 1 6.46 1.685z" fill="#ffffff" fill-rule="nonzero"></path></svg>
