<svg xmlns="http://www.w3.org/2000/svg" width="504" height="61" viewBox="0 0 504 61"><title>FindYourNetBinge</title><path d="M13.916 46l4.863-22.559h8.76l.967-4.453h-8.76l2.52-11.924c1.406.332 2.802.606 4.19.82 1.386.216 2.792.323 4.218.323 1.152-.234 2.06-.63 2.724-1.186.664-.557 1.182-1.177 1.553-1.86.371-.684.65-1.392.835-2.125.186-.732.376-1.411.571-2.036-.84.273-1.713.464-2.622.571-.908.108-1.83.161-2.768.161-.957 0-1.904-.039-2.842-.117-.938-.078-1.831-.16-2.68-.249-.85-.088-1.651-.17-2.403-.249A19.88 19.88 0 0 0 21.006 1c-3.711 0-6.865.44-9.463 1.318-2.598.88-4.712 2.041-6.343 3.487-1.63 1.445-2.817 3.105-3.56 4.98a15.627 15.627 0 0 0-1.113 5.8c0 1.095.142 2.013.425 2.755.283.742.698 1.338 1.245 1.787.547.45 1.221.776 2.022.981.8.205 1.718.308 2.754.308a.866.866 0 0 0-.132-.41 5.066 5.066 0 0 1-.293-.66 6.796 6.796 0 0 1-.293-1.142c-.088-.478-.132-1.099-.132-1.86 0-2.403.19-4.395.571-5.977.381-1.582.913-2.842 1.597-3.78.684-.937 1.504-1.606 2.461-2.006.957-.4 2.012-.62 3.164-.66L5.273 46h8.643zm26.743-33.252c.664 0 1.284-.122 1.86-.366a5.017 5.017 0 0 0 1.523-.996 4.618 4.618 0 0 0 1.421-3.355c0-.664-.127-1.284-.38-1.86a4.967 4.967 0 0 0-2.564-2.564 4.561 4.561 0 0 0-1.86-.38c-.664 0-1.285.127-1.86.38a4.79 4.79 0 0 0-1.51 1.04c-.43.44-.766.948-1.01 1.524a4.719 4.719 0 0 0-.367 1.86c0 .664.123 1.284.367 1.86a4.541 4.541 0 0 0 1.01 1.495c.43.42.933.752 1.51.996a4.719 4.719 0 0 0 1.86.366zm-4.073 33.604c.528 0 1.128-.05 1.802-.147a10.538 10.538 0 0 0 2.124-.557 11.91 11.91 0 0 0 2.3-1.171c.79-.508 1.562-1.172 2.314-1.993.752-.82 1.475-1.826 2.168-3.017.694-1.192 1.324-2.598 1.89-4.219h-2.52a10.62 10.62 0 0 1-.908 2.124 7.818 7.818 0 0 1-1.26 1.685 5.503 5.503 0 0 1-1.538 1.098 3.962 3.962 0 0 1-1.713.396c-.84 0-1.456-.161-1.846-.484-.39-.322-.586-.903-.586-1.743 0-.312.015-.63.044-.952.03-.322.093-.65.19-.981L43.354 16H34.71L30.64 35.248c-.156.762-.273 1.47-.352 2.124a15.288 15.288 0 0 0-.117 1.802c0 1.27.166 2.353.498 3.252.332.898.786 1.64 1.363 2.226a5.25 5.25 0 0 0 2.036 1.29c.781.273 1.62.41 2.52.41zm34.729 0c.8 0 1.675-.118 2.622-.352.947-.234 1.914-.737 2.9-1.509.987-.771 1.963-1.89 2.93-3.354.967-1.465 1.87-3.428 2.71-5.889h-2.52a30.63 30.63 0 0 1-.952 2.153 8.457 8.457 0 0 1-1.07 1.685 4.3 4.3 0 0 1-1.317 1.084c-.489.254-1.055.38-1.7.38-.918 0-1.547-.234-1.89-.702-.341-.47-.512-1.075-.512-1.817 0-.566.073-1.225.22-1.977.146-.752.327-1.568.542-2.447.215-.878.444-1.796.688-2.753a95.37 95.37 0 0 0 .689-2.886c.215-.967.395-1.914.542-2.842.146-.928.22-1.792.22-2.593 0-1.191-.167-2.217-.499-3.076-.332-.86-.796-1.562-1.391-2.11a5.496 5.496 0 0 0-2.124-1.2 8.975 8.975 0 0 0-2.666-.381c-.469 0-.972.039-1.51.117a7.94 7.94 0 0 0-1.713.469 9.004 9.004 0 0 0-1.86 1.01c-.635.44-1.275 1.02-1.92 1.743L62.38 16h-8.642l-6.358 30h8.643l4.072-19.248c.235-.762.508-1.48.82-2.153a8.913 8.913 0 0 1 1.055-1.758c.39-.498.82-.894 1.29-1.187.468-.293.976-.44 1.523-.44 1.445 0 2.168 1.026 2.168 3.077 0 .957-.142 2.1-.425 3.428-.283 1.328-.591 2.705-.923 4.13-.332 1.426-.64 2.818-.923 4.175-.283 1.358-.425 2.544-.425 3.56 0 .86.122 1.694.367 2.505.244.81.64 1.533 1.186 2.168.547.635 1.27 1.142 2.168 1.523.898.381 2.012.572 3.34.572zm30.615 0a7.54 7.54 0 0 0 2.315-.367 6.018 6.018 0 0 0 2.05-1.128 6.184 6.184 0 0 0 1.51-1.919c.4-.771.639-1.694.717-2.768-.215.098-.45.185-.703.264-.254.078-.664.117-1.23.117-.938 0-1.583-.23-1.934-.689-.352-.459-.528-1.03-.528-1.714 0-.273.02-.551.059-.835.039-.283.107-.59.205-.922l6.885-32.403-8.877 1.201-2.93 13.8v-.235c0-.86-.386-1.582-1.157-2.168-.772-.586-2.007-.879-3.706-.879-1.738 0-3.33.327-4.776.981a13.652 13.652 0 0 0-3.881 2.637 18.018 18.018 0 0 0-2.989 3.809 26.63 26.63 0 0 0-2.124 4.497 27.806 27.806 0 0 0-1.26 4.687c-.273 1.563-.41 3.028-.41 4.395 0 1.777.225 3.281.674 4.512.45 1.23 1.045 2.226 1.787 2.988a6.501 6.501 0 0 0 2.55 1.64 9.052 9.052 0 0 0 2.987.499c.997 0 1.915-.137 2.754-.41a9.388 9.388 0 0 0 2.315-1.114 11.154 11.154 0 0 0 1.904-1.597 18.438 18.438 0 0 0 1.553-1.86c.176.879.454 1.636.835 2.27.38.635.845 1.153 1.391 1.553.547.4 1.163.694 1.846.88a8.243 8.243 0 0 0 2.168.278zM91.06 40.55c-.273 0-.585-.03-.937-.088-.351-.059-.678-.24-.981-.542-.303-.303-.562-.767-.776-1.392-.215-.625-.323-1.513-.323-2.666 0-.937.088-1.997.264-3.178.176-1.182.435-2.383.776-3.604.342-1.22.757-2.407 1.246-3.56a17.434 17.434 0 0 1 1.67-3.09c.624-.909 1.313-1.636 2.065-2.183.752-.547 1.548-.82 2.388-.82.468 0 .854.073 1.157.22.303.146.542.331.718.556.175.225.307.454.395.689.088.234.151.439.19.615l-2.93 13.74-.234.967a7.528 7.528 0 0 1-.893 1.89 6.44 6.44 0 0 1-1.187 1.347 5.06 5.06 0 0 1-1.318.82c-.45.186-.879.279-1.29.279zM147.81 46l3.955-18.486 11.66-26.221h-3.984l-8.877 21.299-5.215-21.475c-.39-.039-.776-.068-1.157-.088-.381-.02-.796-.029-1.245-.029-1.68 0-3.365.2-5.054.6a26.104 26.104 0 0 0-9.229 4.204 20.796 20.796 0 0 0-3.544 3.194c-1.006 1.152-1.797 2.373-2.373 3.662-.577 1.29-.865 2.598-.865 3.926 0 1.094.142 2.012.425 2.754.283.742.693 1.338 1.23 1.787.538.45 1.207.776 2.007.981.801.205 1.72.308 2.754.308a.866.866 0 0 0-.132-.41 4.166 4.166 0 0 1-.278-.66 8.167 8.167 0 0 1-.278-1.142c-.088-.478-.132-1.099-.132-1.86 0-3.34.786-6.133 2.358-8.38 1.573-2.245 3.765-3.896 6.578-4.95l5.771 22.5L138.2 46h9.609zm19.687.234c1.836 0 3.575-.42 5.215-1.26 1.641-.84 3.096-2.04 4.366-3.603 1.27-1.562 2.319-3.457 3.149-5.684.83-2.226 1.362-4.726 1.597-7.5 2.207-.37 4.238-.986 6.093-1.845 1.856-.86 3.37-1.904 4.541-3.135l-.527-1.64a26.25 26.25 0 0 1-2.139 1.332c-.78.44-1.582.826-2.402 1.158-.82.332-1.636.6-2.446.805a9.287 9.287 0 0 1-2.27.308h-.367a.75.75 0 0 1-.278-.059v-.058c0-6.387-2.569-9.58-7.705-9.58-2.051 0-3.877.366-5.479 1.098a14.846 14.846 0 0 0-4.233 2.886 17.832 17.832 0 0 0-3.106 4.058 27.615 27.615 0 0 0-2.08 4.643 28.832 28.832 0 0 0-1.172 4.614c-.244 1.495-.366 2.828-.366 4 0 1.718.24 3.178.718 4.38.478 1.2 1.142 2.177 1.992 2.93.85.751 1.865 1.298 3.047 1.64 1.182.341 2.466.512 3.852.512zm2.403-5.39c-.567 0-1.045-.069-1.436-.205a1.877 1.877 0 0 1-.952-.747c-.244-.362-.42-.855-.527-1.48-.108-.625-.161-1.435-.161-2.432 0-.996.097-2.104.293-3.325.195-1.22.468-2.456.82-3.706.352-1.25.776-2.466 1.274-3.647a20.175 20.175 0 0 1 1.641-3.15c.596-.918 1.226-1.655 1.89-2.212.664-.556 1.357-.835 2.08-.835.41 0 .747.06 1.01.176.264.117.484.318.66.6.175.284.312.645.41 1.085.097.44.166.981.205 1.626a3.08 3.08 0 0 0-1.362 1.186c-.342.537-.513 1.226-.513 2.066 0 .605.112 1.137.337 1.596.224.46.65.767 1.274.923a29.361 29.361 0 0 1-1.07 4.922c-.478 1.524-1.03 2.842-1.654 3.955-.625 1.114-1.304 1.992-2.037 2.637-.732.644-1.46.967-2.182.967zm35.947 5.508c.527 0 1.113-.05 1.758-.147a9.537 9.537 0 0 0 2.021-.557 10.805 10.805 0 0 0 2.168-1.171c.743-.508 1.47-1.172 2.183-1.993.713-.82 1.401-1.826 2.065-3.017.664-1.192 1.28-2.598 1.846-4.219h-2.52c-.214.762-.478 1.47-.79 2.124a7.352 7.352 0 0 1-1.084 1.685 4.79 4.79 0 0 1-1.363 1.098 3.422 3.422 0 0 1-1.626.396c-.84 0-1.46-.161-1.86-.484-.4-.322-.6-.903-.6-1.743 0-.312.019-.63.058-.952.039-.322.107-.65.205-.981L212.614 16h-8.643L199.9 35.248a16.87 16.87 0 0 1-.806 2.124 7.288 7.288 0 0 1-1.055 1.685c-.4.468-.844.835-1.333 1.098a3.336 3.336 0 0 1-1.61.396c-.684 0-1.153-.24-1.407-.718-.254-.479-.381-1.06-.381-1.743 0-.508.059-1.074.176-1.7L197.789 16h-8.642l-4.072 19.248c-.157.762-.274 1.47-.352 2.124a15.288 15.288 0 0 0-.117 1.802c0 1.27.166 2.353.498 3.252.332.898.786 1.64 1.362 2.226a5.25 5.25 0 0 0 2.036 1.29c.782.273 1.621.41 2.52.41.625 0 1.299-.064 2.021-.19.723-.128 1.465-.396 2.227-.807.762-.41 1.533-.986 2.314-1.728.782-.742 1.553-1.729 2.315-2.959.215 1.895.83 3.315 1.846 4.263 1.015.947 2.382 1.42 4.101 1.42zM221.725 46l4.805-22.793c.742-.684 1.425-1.235 2.05-1.655.625-.42 1.397-.63 2.315-.63.293 0 .503.098.63.293.127.195.23.44.307.732.079.293.152.61.22.952.069.342.18.66.337.953.156.293.386.537.689.732.302.195.737.293 1.303.293.723 0 1.358-.132 1.905-.396a4.243 4.243 0 0 0 1.362-1.01c.361-.41.63-.874.806-1.392.175-.517.263-1.04.263-1.567 0-.586-.088-1.153-.263-1.7a4.112 4.112 0 0 0-.791-1.435 4.03 4.03 0 0 0-1.304-.996c-.518-.254-1.118-.381-1.802-.381-.723 0-1.406.107-2.05.322a10.23 10.23 0 0 0-1.861.835c-.596.342-1.167.738-1.714 1.187-.547.449-1.084.908-1.611 1.377l.761-3.721h-8.642l-6.358 30h8.643zm40.43 0l6.855-29.766L275.954 46h8.29l9.786-44.883h-5.83l-6.71 32.578-7.236-32.11a15.579 15.579 0 0 0-2.3-.629c-.693-.127-1.508-.19-2.446-.19-1.68 0-3.29.19-4.834.57-1.543.382-2.988.919-4.336 1.612a18.54 18.54 0 0 0-3.691 2.49 16.38 16.38 0 0 0-2.857 3.208 15.22 15.22 0 0 0-1.845 3.75 13.064 13.064 0 0 0-.66 4.131c0 2.246.61 3.892 1.832 4.937 1.22 1.045 3.11 1.567 5.669 1.567-.508-.664-.904-1.528-1.187-2.593-.283-1.064-.425-2.24-.425-3.53 0-2.93.694-5.42 2.08-7.47 1.387-2.051 3.467-3.565 6.24-4.542L256.472 46h5.684zm64.922.352c.742 0 1.635-.118 2.68-.352 1.045-.234 2.134-.742 3.267-1.523 1.133-.782 2.246-1.905 3.34-3.37 1.093-1.464 2.06-3.418 2.9-5.859h-2.52a10.62 10.62 0 0 1-.908 2.124 7.818 7.818 0 0 1-1.26 1.685 5.503 5.503 0 0 1-1.538 1.098 3.962 3.962 0 0 1-1.713.396c-.684 0-1.226-.171-1.626-.513a3.762 3.762 0 0 1-.967-1.304 8.408 8.408 0 0 1-.571-1.713 123.9 123.9 0 0 1-.381-1.773l-.528-2.93a89.187 89.187 0 0 0 3.911-4.467c1.084-1.338 1.973-2.588 2.666-3.75.694-1.163 1.202-2.251 1.524-3.267a9.847 9.847 0 0 0 .483-2.988 7.6 7.6 0 0 0-.263-2.036 4.913 4.913 0 0 0-.791-1.656 3.828 3.828 0 0 0-1.319-1.113c-.527-.273-1.142-.41-1.845-.41-.938 0-1.71.249-2.315.747s-.908 1.274-.908 2.329c0 .371.044.742.132 1.113.088.371.239.703.454.996.215.293.498.533.85.718.351.186.79.279 1.318.279.215 0 .395-.01.542-.03.146-.02.327-.049.542-.088a.86.86 0 0 1 .058.323v.41c0 .527-.127 1.142-.38 1.845-.254.704-.625 1.465-1.114 2.286a24.714 24.714 0 0 1-1.801 2.592 41.978 41.978 0 0 1-2.417 2.798L324.264 16h-8.467l3.428 18.604a21.501 21.501 0 0 1-3.31 2.959 21.525 21.525 0 0 1-3.648 2.138c-1.24.567-2.476.996-3.706 1.29-1.23.292-2.383.439-3.457.439-.84 0-1.626-.098-2.358-.293a4.783 4.783 0 0 1-1.905-.982c-.537-.459-.962-1.07-1.274-1.83-.313-.763-.469-1.7-.469-2.813 0-.254.005-.523.015-.806.01-.283.034-.561.073-.835a16.52 16.52 0 0 0 5.23-1.201c1.67-.684 3.144-1.582 4.423-2.695a12.923 12.923 0 0 0 3.062-3.912c.762-1.494 1.142-3.11 1.142-4.848 0-.742-.092-1.46-.278-2.153a4.216 4.216 0 0 0-1.025-1.832c-.498-.527-1.172-.952-2.022-1.274-.85-.322-1.948-.483-3.296-.483-2.05 0-3.877.37-5.478 1.113a14.324 14.324 0 0 0-4.19 2.915 18.483 18.483 0 0 0-3.047 4.072 26.188 26.188 0 0 0-2.021 4.614 30.096 30.096 0 0 0-1.113 4.542c-.235 1.464-.352 2.744-.352 3.837 0 1.817.283 3.35.85 4.6.566 1.25 1.338 2.256 2.314 3.018.977.761 2.11 1.313 3.399 1.655 1.289.342 2.666.513 4.13.513 1.68 0 3.384-.2 5.113-.601 1.728-.4 3.418-.967 5.068-1.7a30.074 30.074 0 0 0 4.717-2.621 25.895 25.895 0 0 0 4.058-3.399c.351 1.504.737 2.783 1.157 3.838.42 1.055.913 1.914 1.48 2.578.566.664 1.22 1.148 1.962 1.45.742.303 1.611.455 2.608.455zM299.655 31a35.444 35.444 0 0 1 1.2-4.277 27.508 27.508 0 0 1 1.73-4c.644-1.2 1.337-2.182 2.08-2.944.742-.761 1.494-1.142 2.255-1.142.567 0 .957.224 1.172.674.215.449.322 1.044.322 1.787 0 1.25-.239 2.46-.717 3.632a10.743 10.743 0 0 1-1.934 3.12c-.81.909-1.743 1.651-2.798 2.227a7.344 7.344 0 0 1-3.31.923zm42.744 15.352c.527 0 1.07-.064 1.626-.19.556-.128 1.108-.396 1.655-.807.547-.41 1.084-1 1.611-1.772.528-.771 1.016-1.802 1.465-3.09a2.501 2.501 0 0 1-.82.16c-.293.01-.547.015-.762.015-.82 0-1.372-.205-1.655-.615-.283-.41-.425-.928-.425-1.553 0-.293.025-.62.073-.981.05-.362.122-.738.22-1.128l3.838-17.989h3.604l.468-2.402h-3.603c.273-1.348.532-2.603.776-3.765s.474-2.163.689-3.003c.097-.507.195-.99.293-1.45.097-.459.195-.884.293-1.274l-8.877 1.201L341.05 16h-1.963l-.498 2.402h1.992l-3.837 17.989a15.222 15.222 0 0 0-.352 3.193c0 .957.112 1.85.337 2.68.224.83.576 1.548 1.055 2.154.478.605 1.098 1.08 1.86 1.42.762.343 1.68.514 2.754.514zm47.139.673c1.68 0 3.168-.293 4.467-.879a11.706 11.706 0 0 0 3.413-2.314 13.62 13.62 0 0 0 2.461-3.281 22.17 22.17 0 0 0 1.612-3.765c.41-1.28.708-2.534.893-3.765.186-1.23.279-2.324.279-3.28 0-1.134-.127-2.227-.381-3.282a9.173 9.173 0 0 0-1.23-2.886 7.943 7.943 0 0 0-2.198-2.226c-.899-.616-1.992-1.04-3.281-1.275a12.315 12.315 0 0 0 2.592-1.919 12.28 12.28 0 0 0 1.89-2.329c.508-.82.889-1.68 1.143-2.578a9.87 9.87 0 0 0 .38-2.695c0-1.23-.253-2.422-.761-3.574-.508-1.153-1.284-2.168-2.33-3.047-1.044-.88-2.367-1.587-3.969-2.124-1.602-.537-3.506-.806-5.713-.806-1.894 0-3.745.2-5.552.6-1.806.401-3.515.962-5.127 1.685a24.84 24.84 0 0 0-4.453 2.564c-1.357.986-2.53 2.07-3.515 3.252-.987 1.181-1.753 2.431-2.3 3.75a10.497 10.497 0 0 0-.82 4.057c0 2.031.561 3.457 1.684 4.278 1.123.82 2.7 1.23 4.732 1.23a.866.866 0 0 0-.132-.41 5.066 5.066 0 0 1-.293-.66 6.796 6.796 0 0 1-.293-1.142c-.088-.478-.132-1.099-.132-1.86 0-1.64.21-3.14.63-4.497.42-1.358.986-2.578 1.699-3.662a12.54 12.54 0 0 1 2.534-2.828c.977-.8 2.017-1.47 3.12-2.006a15.432 15.432 0 0 1 3.457-1.202 16.566 16.566 0 0 1 3.56-.395c1.426 0 2.642.18 3.647.542 1.006.361 1.822.845 2.447 1.45a5.644 5.644 0 0 1 1.377 2.066c.293.771.44 1.577.44 2.417 0 1.132-.23 2.275-.69 3.427a11.524 11.524 0 0 1-1.86 3.135 9.748 9.748 0 0 1-2.739 2.285 6.75 6.75 0 0 1-3.355.88h-.351l2.812-13.302-8.877 1.172L372.311 46h8.643l4.921-22.969a12.283 12.283 0 0 1 1.612-.176c.508-.02.888-.029 1.142-.029 1.094 0 2.002.205 2.725.615.723.41 1.304.962 1.743 1.656.44.693.752 1.504.938 2.431.185.928.278 1.91.278 2.945 0 1.132-.103 2.334-.308 3.603a14.317 14.317 0 0 1-1.01 3.501c-.47 1.065-1.08 1.944-1.832 2.637-.751.693-1.674 1.04-2.768 1.04a4.334 4.334 0 0 1-1.963-.469c-.625-.312-1.318-.879-2.08-1.7a11.246 11.246 0 0 0-.586 1.876 7.963 7.963 0 0 0-.176 1.611c0 .918.19 1.665.572 2.241.38.577.859 1.03 1.435 1.363a5.677 5.677 0 0 0 1.919.674c.703.117 1.377.175 2.022.175zm25.253-34.277c.664 0 1.285-.122 1.86-.366a5.017 5.017 0 0 0 1.524-.996 4.618 4.618 0 0 0 1.421-3.355c0-.664-.127-1.284-.38-1.86a4.967 4.967 0 0 0-2.564-2.564 4.561 4.561 0 0 0-1.86-.38c-.665 0-1.285.127-1.86.38a4.79 4.79 0 0 0-1.51 1.04c-.43.44-.766.948-1.01 1.524a4.719 4.719 0 0 0-.367 1.86c0 .664.122 1.284.367 1.86a4.541 4.541 0 0 0 1.01 1.495c.43.42.933.752 1.51.996a4.719 4.719 0 0 0 1.86.366zm-4.072 33.604c.527 0 1.128-.05 1.802-.147a10.538 10.538 0 0 0 2.124-.557 11.91 11.91 0 0 0 2.3-1.171c.79-.508 1.562-1.172 2.314-1.993.752-.82 1.475-1.826 2.168-3.017.694-1.192 1.323-2.598 1.89-4.219h-2.52a10.62 10.62 0 0 1-.908 2.124 7.818 7.818 0 0 1-1.26 1.685 5.503 5.503 0 0 1-1.538 1.098 3.962 3.962 0 0 1-1.714.396c-.84 0-1.455-.161-1.845-.484-.391-.322-.586-.903-.586-1.743 0-.312.014-.63.044-.952.029-.322.092-.65.19-.981L417.487 16h-8.643l-4.072 19.248c-.156.762-.274 1.47-.352 2.124a15.288 15.288 0 0 0-.117 1.802c0 1.27.166 2.353.498 3.252.332.898.786 1.64 1.362 2.226a5.25 5.25 0 0 0 2.037 1.29c.78.273 1.62.41 2.52.41zm31.729 0c.8 0 1.674-.118 2.622-.352.947-.234 1.914-.737 2.9-1.509.986-.771 1.963-1.89 2.93-3.354.967-1.465 1.87-3.428 2.71-5.889h-2.52a30.63 30.63 0 0 1-.952 2.153 8.457 8.457 0 0 1-1.07 1.685 4.3 4.3 0 0 1-1.318 1.084c-.488.254-1.054.38-1.699.38-.918 0-1.548-.234-1.89-.702-.341-.47-.512-1.075-.512-1.817 0-.566.073-1.225.22-1.977.146-.752.327-1.568.542-2.447.214-.878.444-1.796.688-2.753.244-.958.474-1.92.689-2.886.214-.967.395-1.914.541-2.842.147-.928.22-1.792.22-2.593 0-1.191-.166-2.217-.498-3.076-.332-.86-.796-1.562-1.391-2.11a5.496 5.496 0 0 0-2.124-1.2 8.975 8.975 0 0 0-2.666-.381c-.47 0-.972.039-1.51.117a7.94 7.94 0 0 0-1.713.469 9.004 9.004 0 0 0-1.86 1.01c-.635.44-1.275 1.02-1.92 1.743l.645-3.105h-8.642l-6.358 30h8.643l4.072-19.248c.234-.762.508-1.48.82-2.153a8.913 8.913 0 0 1 1.055-1.758c.39-.498.82-.894 1.289-1.187.469-.293.977-.44 1.523-.44 1.446 0 2.168 1.026 2.168 3.077 0 .957-.141 2.1-.424 3.428-.284 1.328-.591 2.705-.923 4.13-.332 1.426-.64 2.818-.923 4.175-.283 1.358-.425 2.544-.425 3.56 0 .86.122 1.694.366 2.505.244.81.64 1.533 1.187 2.168.547.635 1.27 1.142 2.168 1.523.898.381 2.012.572 3.34.572zM461.696 61c.996 0 2.036-.127 3.12-.38 1.084-.255 2.124-.753 3.12-1.495.996-.742 1.9-1.777 2.71-3.105.81-1.329 1.43-3.067 1.86-5.215l.908-4.336a17.253 17.253 0 0 0 2.9-1.026c.997-.449 1.964-1.098 2.901-1.948.938-.85 1.822-1.938 2.652-3.266.83-1.329 1.547-2.989 2.153-4.981h-2.52c-.41 1.309-.864 2.432-1.362 3.37-.498.937-1.055 1.742-1.67 2.416a8.879 8.879 0 0 1-2.036 1.67c-.742.44-1.572.816-2.49 1.128L479.889 16h-8.643l-.644 3.105v-.351c0-.86-.386-1.582-1.157-2.168-.772-.586-2.007-.879-3.706-.879-1.739 0-3.33.327-4.776.981a13.652 13.652 0 0 0-3.882 2.637 18.018 18.018 0 0 0-2.988 3.809 26.63 26.63 0 0 0-2.124 4.497 27.806 27.806 0 0 0-1.26 4.687c-.273 1.563-.41 3.028-.41 4.395 0 1.777.225 3.281.674 4.512.45 1.23 1.045 2.226 1.787 2.988a6.501 6.501 0 0 0 2.549 1.64 9.052 9.052 0 0 0 2.988.499c1.563 0 2.935-.313 4.116-.938a11.692 11.692 0 0 0 3.091-2.344l-.732 3.164a33.12 33.12 0 0 0-3.443 1.29 15.294 15.294 0 0 0-3.149 1.83 9.323 9.323 0 0 0-2.3 2.505c-.595.957-.893 2.06-.893 3.31 0 .977.18 1.832.542 2.564a5.221 5.221 0 0 0 1.45 1.817 6.33 6.33 0 0 0 2.124 1.084c.81.244 1.675.366 2.593.366zm.498-20.45c-.274 0-.586-.029-.938-.087-.351-.059-.678-.24-.981-.542-.303-.303-.562-.767-.777-1.392-.214-.625-.322-1.513-.322-2.666 0-.937.088-1.997.264-3.178.176-1.182.434-2.383.776-3.604.342-1.22.757-2.407 1.245-3.56a17.434 17.434 0 0 1 1.67-3.09c.625-.909 1.314-1.636 2.066-2.183.752-.547 1.548-.82 2.387-.82.489 0 .889.083 1.202.249.312.166.561.366.747.6.185.235.317.479.395.733.078.254.117.469.117.644l-3.047 14.21a7 7 0 0 1-.85 2.02 6.397 6.397 0 0 1-1.244 1.466c-.46.39-.923.688-1.392.893-.469.205-.908.308-1.318.308zm-1.875 15.763c-.352 0-.655-.06-.908-.176a1.805 1.805 0 0 1-.63-.469 1.932 1.932 0 0 1-.367-.645 2.129 2.129 0 0 1-.117-.673c0-.606.161-1.158.484-1.656a5.451 5.451 0 0 1 1.289-1.362c.537-.41 1.157-.786 1.86-1.128.703-.342 1.445-.66 2.227-.952l-.352 1.728c-.39 1.817-.913 3.16-1.567 4.029-.655.869-1.294 1.303-1.92 1.303zm29.648-9.961c1.211 0 2.373-.137 3.487-.41a8.41 8.41 0 0 0 3.046-1.436c.918-.684 1.71-1.592 2.373-2.725.665-1.133 1.153-2.568 1.465-4.306-.468.43-.996.835-1.582 1.215-.586.381-1.186.718-1.802 1.011-.615.293-1.24.528-1.875.703a6.855 6.855 0 0 1-1.83.264 4.43 4.43 0 0 1-1.465-.234 2.727 2.727 0 0 1-1.172-.806c-.332-.38-.596-.894-.791-1.538-.196-.645-.293-1.445-.293-2.403 0-.273.014-.561.044-.864.029-.302.063-.62.102-.952a16.318 16.318 0 0 0 5.186-1.201c1.66-.684 3.13-1.582 4.409-2.695a12.923 12.923 0 0 0 3.061-3.912c.762-1.494 1.143-3.11 1.143-4.848 0-.742-.093-1.46-.278-2.153a4.216 4.216 0 0 0-1.026-1.832c-.498-.527-1.172-.952-2.021-1.274-.85-.322-1.948-.483-3.296-.483-2.05 0-3.877.366-5.479 1.098a14.1 14.1 0 0 0-4.189 2.9 18.344 18.344 0 0 0-3.047 4.088 26.27 26.27 0 0 0-2.021 4.658 30.548 30.548 0 0 0-1.114 4.629c-.234 1.504-.351 2.832-.351 3.984 0 1.7.224 3.15.674 4.35.449 1.202 1.079 2.183 1.89 2.945.81.762 1.786 1.323 2.929 1.685 1.143.36 2.417.542 3.823.542zM490.084 31a36.432 36.432 0 0 1 1.245-4.336 29.07 29.07 0 0 1 1.729-3.984c.635-1.192 1.318-2.163 2.05-2.915.733-.752 1.48-1.128 2.242-1.128.566 0 .957.224 1.172.674.215.449.322 1.044.322 1.787 0 1.25-.24 2.46-.718 3.632a10.743 10.743 0 0 1-1.933 3.12c-.81.909-1.743 1.651-2.798 2.227a7.344 7.344 0 0 1-3.31.923z" fill="#FFF" fill-rule="nonzero"/></svg>