<svg xmlns="http://www.w3.org/2000/svg" width="120" zoomAndPan="magnify" viewBox="0 0 90 74.999997" height="100"
     preserveAspectRatio="xMidYMid meet" version="1.0"><defs><g/></defs><g fill="#ffffff" fill-opacity="1"><g transform="translate(0.696806, 24.893516)"><g><path d="M 6.59375 -17.453125 C 6.726562 -17.578125 6.972656 -17.5 7.328125 -17.21875 C 7.628906 -16.988281 7.816406 -16.875 7.890625 -16.875 C 7.972656 -16.875 8.148438 -16.753906 8.421875 -16.515625 C 8.597656 -16.367188 8.707031 -16.203125 8.75 -16.015625 C 8.800781 -15.835938 8.828125 -15.523438 8.828125 -15.078125 C 8.828125 -14.640625 8.800781 -14.34375 8.75 -14.1875 C 8.707031 -14.03125 8.617188 -13.921875 8.484375 -13.859375 C 8.304688 -13.753906 7.929688 -13.691406 7.359375 -13.671875 C 6.796875 -13.660156 6.484375 -13.707031 6.421875 -13.8125 C 6.335938 -13.851562 6.4375 -14.054688 6.71875 -14.421875 C 6.914062 -14.617188 7.035156 -14.796875 7.078125 -14.953125 C 7.117188 -15.109375 7.113281 -15.34375 7.0625 -15.65625 C 7 -16.164062 6.890625 -16.570312 6.734375 -16.875 C 6.578125 -17.1875 6.53125 -17.378906 6.59375 -17.453125 Z M 14.046875 -17.984375 C 14.179688 -18.128906 14.347656 -18.195312 14.546875 -18.1875 C 14.742188 -18.1875 15.0625 -18.085938 15.5 -17.890625 C 16.40625 -17.484375 16.800781 -16.769531 16.6875 -15.75 C 16.65625 -15.40625 16.648438 -15.1875 16.671875 -15.09375 C 16.691406 -15.007812 16.796875 -14.914062 16.984375 -14.8125 C 17.335938 -14.664062 17.515625 -14.441406 17.515625 -14.140625 C 17.515625 -13.847656 17.335938 -13.65625 16.984375 -13.5625 C 16.722656 -13.507812 16.523438 -13.398438 16.390625 -13.234375 C 16.304688 -13.140625 16.234375 -12.84375 16.171875 -12.34375 C 16.117188 -11.84375 16.09375 -11.394531 16.09375 -11 C 16.09375 -10.601562 16.125 -10.375 16.1875 -10.3125 C 16.269531 -10.3125 16.59375 -10.394531 17.15625 -10.5625 C 17.675781 -10.71875 18.101562 -10.765625 18.4375 -10.703125 C 18.78125 -10.640625 19.140625 -10.441406 19.515625 -10.109375 C 19.890625 -9.765625 20.113281 -9.332031 20.1875 -8.8125 C 20.257812 -8.300781 20.207031 -7.515625 20.03125 -6.453125 C 19.78125 -5.035156 19.582031 -4.15625 19.4375 -3.8125 C 19.289062 -3.46875 18.941406 -3.023438 18.390625 -2.484375 L 17.375 -1.46875 L 16.09375 -1.59375 C 15.257812 -1.695312 14.742188 -1.804688 14.546875 -1.921875 C 14.203125 -2.128906 13.191406 -1.960938 11.515625 -1.421875 C 11.316406 -1.378906 11.21875 -1.375 11.21875 -1.40625 C 11.207031 -1.414062 11.335938 -1.59375 11.609375 -1.9375 C 11.953125 -2.320312 12.164062 -2.710938 12.25 -3.109375 C 12.332031 -3.515625 12.285156 -3.875 12.109375 -4.1875 C 11.960938 -4.394531 11.898438 -4.59375 11.921875 -4.78125 C 11.941406 -4.96875 12.0625 -5.0625 12.28125 -5.0625 C 12.375 -5.0625 12.425781 -5.082031 12.4375 -5.125 C 12.445312 -5.164062 12.410156 -5.253906 12.328125 -5.390625 C 12.191406 -5.597656 12.164062 -5.800781 12.25 -6 C 12.382812 -6.332031 13.078125 -6.289062 14.328125 -5.875 C 14.640625 -5.78125 14.835938 -5.671875 14.921875 -5.546875 C 15.015625 -5.421875 15.109375 -5.113281 15.203125 -4.625 C 15.335938 -4.03125 15.484375 -3.691406 15.640625 -3.609375 C 15.796875 -3.535156 16.117188 -3.613281 16.609375 -3.84375 C 17.253906 -4.082031 17.710938 -4.453125 17.984375 -4.953125 C 18.253906 -5.453125 18.453125 -6.238281 18.578125 -7.3125 C 18.660156 -8.007812 18.660156 -8.484375 18.578125 -8.734375 C 18.492188 -8.992188 18.296875 -9.125 17.984375 -9.125 C 17.691406 -9.125 17.40625 -9.039062 17.125 -8.875 C 16.84375 -8.71875 16.429688 -8.394531 15.890625 -7.90625 C 15.367188 -7.4375 14.957031 -7.171875 14.65625 -7.109375 C 14.363281 -7.054688 14.15625 -7.210938 14.03125 -7.578125 C 13.914062 -7.835938 13.878906 -8.140625 13.921875 -8.484375 C 13.972656 -8.828125 14.148438 -9.550781 14.453125 -10.65625 C 14.773438 -11.820312 14.832031 -12.40625 14.625 -12.40625 C 14.488281 -12.40625 14.195312 -12.164062 13.75 -11.6875 C 13.019531 -10.90625 12.378906 -10.128906 11.828125 -9.359375 C 11.273438 -8.597656 10.800781 -7.820312 10.40625 -7.03125 C 10.0625 -6.28125 9.726562 -5.664062 9.40625 -5.1875 C 9.09375 -4.71875 8.664062 -4.203125 8.125 -3.640625 C 7.46875 -2.929688 7.140625 -2.515625 7.140625 -2.390625 C 7.140625 -2.273438 7.023438 -2.21875 6.796875 -2.21875 C 6.566406 -2.21875 6.347656 -2.394531 6.140625 -2.75 C 5.929688 -3.113281 5.816406 -3.484375 5.796875 -3.859375 C 5.773438 -4.234375 5.851562 -4.539062 6.03125 -4.78125 C 6.175781 -4.925781 6.25 -5.082031 6.25 -5.25 C 6.25 -5.425781 6.519531 -6.347656 7.0625 -8.015625 C 7.96875 -10.742188 8.367188 -12.15625 8.265625 -12.25 C 8.203125 -12.320312 7.742188 -11.914062 6.890625 -11.03125 C 6.003906 -10.09375 5.070312 -9.359375 4.09375 -8.828125 C 3.125 -8.304688 2.425781 -8.171875 2 -8.421875 C 1.832031 -8.515625 1.890625 -8.644531 2.171875 -8.8125 C 2.242188 -8.875 2.363281 -8.945312 2.53125 -9.03125 C 3.40625 -9.539062 4.570312 -10.453125 6.03125 -11.765625 C 6.800781 -12.453125 7.429688 -12.925781 7.921875 -13.1875 C 8.253906 -13.382812 8.476562 -13.484375 8.59375 -13.484375 C 8.71875 -13.484375 8.9375 -13.414062 9.25 -13.28125 C 9.738281 -13.050781 10.03125 -12.65625 10.125 -12.09375 C 10.226562 -11.53125 10.132812 -10.9375 9.84375 -10.3125 C 9.382812 -9.4375 9.3125 -8.992188 9.625 -8.984375 C 9.882812 -8.984375 10.273438 -9.335938 10.796875 -10.046875 C 11.328125 -10.710938 12.082031 -11.554688 13.0625 -12.578125 C 13.800781 -13.328125 14.226562 -13.789062 14.34375 -13.96875 C 14.457031 -14.15625 14.46875 -14.394531 14.375 -14.6875 C 14.207031 -15.300781 14.082031 -15.972656 14 -16.703125 C 13.914062 -17.429688 13.929688 -17.859375 14.046875 -17.984375 Z M 14.71875 -16.875 C 14.71875 -16.613281 14.78125 -16.351562 14.90625 -16.09375 C 15.039062 -15.832031 15.175781 -15.703125 15.3125 -15.703125 C 15.457031 -15.703125 15.535156 -15.878906 15.546875 -16.234375 C 15.566406 -16.585938 15.5 -16.84375 15.34375 -17 C 15.1875 -17.164062 15.039062 -17.234375 14.90625 -17.203125 C 14.78125 -17.171875 14.71875 -17.0625 14.71875 -16.875 Z M 14.71875 -16.875 "/></g></g></g><g fill="#ffffff" fill-opacity="1"><g transform="translate(22.848376, 24.893516)"><g><path d="M 9.28125 -20.796875 C 9.28125 -20.972656 9.582031 -20.898438 10.1875 -20.578125 C 10.207031 -20.578125 10.234375 -20.566406 10.265625 -20.546875 C 10.523438 -20.367188 10.675781 -20.226562 10.71875 -20.125 C 10.769531 -20.03125 10.78125 -19.835938 10.75 -19.546875 C 10.6875 -19.128906 10.425781 -18.613281 9.96875 -18 C 9.519531 -17.382812 9.316406 -17.0625 9.359375 -17.03125 C 9.398438 -17 9.789062 -17.144531 10.53125 -17.46875 C 11.363281 -17.882812 12.117188 -18.054688 12.796875 -17.984375 C 13.472656 -17.921875 13.890625 -17.628906 14.046875 -17.109375 C 14.160156 -16.828125 14.035156 -16.109375 13.671875 -14.953125 C 13.316406 -13.796875 13.035156 -13.03125 12.828125 -12.65625 L 12.5 -12.078125 L 12.875 -12.1875 C 13.113281 -12.257812 13.519531 -12.40625 14.09375 -12.625 C 14.632812 -12.820312 15.066406 -12.921875 15.390625 -12.921875 C 15.722656 -12.921875 16.179688 -12.820312 16.765625 -12.625 C 17.066406 -12.488281 17.28125 -12.398438 17.40625 -12.359375 C 17.53125 -12.316406 17.675781 -12.207031 17.84375 -12.03125 C 18.007812 -11.863281 18.101562 -11.738281 18.125 -11.65625 C 18.144531 -11.582031 18.179688 -11.359375 18.234375 -10.984375 C 18.285156 -10.617188 18.3125 -10.296875 18.3125 -10.015625 C 18.3125 -9.734375 18.300781 -9.234375 18.28125 -8.515625 C 18.28125 -3.835938 17.640625 -0.6875 16.359375 0.9375 C 16.128906 1.21875 15.929688 1.359375 15.765625 1.359375 C 15.609375 1.359375 15.257812 1.128906 14.71875 0.671875 C 13.664062 -0.234375 12.710938 -0.984375 11.859375 -1.578125 C 11.515625 -1.785156 11.316406 -1.929688 11.265625 -2.015625 C 11.222656 -2.097656 11.265625 -2.1875 11.390625 -2.28125 C 11.585938 -2.414062 11.941406 -2.367188 12.453125 -2.140625 C 12.972656 -1.910156 13.5 -1.785156 14.03125 -1.765625 C 14.570312 -1.753906 14.921875 -1.863281 15.078125 -2.09375 C 15.503906 -2.695312 15.867188 -4.175781 16.171875 -6.53125 C 16.484375 -8.882812 16.5 -10.421875 16.21875 -11.140625 C 16.113281 -11.378906 16.015625 -11.515625 15.921875 -11.546875 C 15.835938 -11.578125 15.609375 -11.566406 15.234375 -11.515625 C 13.859375 -11.316406 12.550781 -10.816406 11.3125 -10.015625 C 9.957031 -9.128906 9.453125 -8.585938 9.796875 -8.390625 C 10.222656 -8.140625 10.472656 -7.929688 10.546875 -7.765625 C 10.617188 -7.609375 10.65625 -7.234375 10.65625 -6.640625 C 10.625 -5.898438 10.664062 -5.53125 10.78125 -5.53125 C 10.894531 -5.53125 11.070312 -5.6875 11.3125 -6 C 11.46875 -6.1875 11.570312 -6.285156 11.625 -6.296875 C 11.6875 -6.316406 11.773438 -6.257812 11.890625 -6.125 C 12.015625 -5.945312 12.316406 -5.828125 12.796875 -5.765625 C 13.160156 -5.710938 13.363281 -5.703125 13.40625 -5.734375 C 13.457031 -5.765625 13.484375 -5.90625 13.484375 -6.15625 C 13.484375 -6.5 13.398438 -6.75 13.234375 -6.90625 C 13.078125 -7.0625 12.90625 -7.296875 12.71875 -7.609375 C 12.625 -7.816406 12.578125 -7.945312 12.578125 -8 C 12.578125 -8.0625 12.625 -8.117188 12.71875 -8.171875 C 12.96875 -8.265625 13.441406 -8.035156 14.140625 -7.484375 C 14.835938 -6.941406 15.1875 -6.53125 15.1875 -6.25 C 15.1875 -5.988281 15.03125 -5.609375 14.71875 -5.109375 C 14.414062 -4.617188 14.160156 -4.351562 13.953125 -4.3125 C 13.703125 -4.226562 13.410156 -4.1875 13.078125 -4.1875 C 12.742188 -4.1875 12.179688 -4.066406 11.390625 -3.828125 C 10.609375 -3.585938 10.019531 -3.4375 9.625 -3.375 C 9.28125 -3.289062 8.785156 -3.078125 8.140625 -2.734375 C 7.503906 -2.398438 7.113281 -2.132812 6.96875 -1.9375 C 6.820312 -1.78125 6.441406 -1.585938 5.828125 -1.359375 C 5.222656 -1.128906 4.835938 -1.039062 4.671875 -1.09375 C 4.503906 -1.15625 4.304688 -1.476562 4.078125 -2.0625 C 3.890625 -2.5625 3.8125 -2.9375 3.84375 -3.1875 C 3.882812 -3.4375 4.101562 -3.828125 4.5 -4.359375 C 4.78125 -4.734375 4.921875 -5.019531 4.921875 -5.21875 C 4.921875 -5.65625 5.191406 -5.738281 5.734375 -5.46875 C 6.046875 -5.300781 6.300781 -5.078125 6.5 -4.796875 C 6.707031 -4.515625 6.765625 -4.3125 6.671875 -4.1875 C 6.617188 -4.082031 6.617188 -4.03125 6.671875 -4.03125 C 6.734375 -4.03125 6.90625 -4.082031 7.1875 -4.1875 C 7.46875 -4.300781 7.582031 -4.457031 7.53125 -4.65625 C 7.5 -4.800781 7.523438 -4.910156 7.609375 -4.984375 C 7.691406 -5.054688 7.863281 -5.148438 8.125 -5.265625 L 8.8125 -5.515625 L 8.765625 -6.59375 C 8.765625 -7.25 8.6875 -7.695312 8.53125 -7.9375 C 8.382812 -8.175781 8.132812 -8.257812 7.78125 -8.1875 C 7.476562 -8.15625 7.269531 -8.203125 7.15625 -8.328125 C 7.039062 -8.453125 6.941406 -8.757812 6.859375 -9.25 C 6.796875 -9.644531 6.847656 -9.984375 7.015625 -10.265625 C 7.671875 -11.378906 7.941406 -12.132812 7.828125 -12.53125 C 7.796875 -12.726562 7.796875 -12.84375 7.828125 -12.875 C 7.859375 -12.90625 7.960938 -12.90625 8.140625 -12.875 C 8.410156 -12.84375 8.664062 -12.976562 8.90625 -13.28125 C 9.15625 -13.59375 9.253906 -13.832031 9.203125 -14 C 9.085938 -14.28125 8.914062 -14.394531 8.6875 -14.34375 C 8.457031 -14.289062 8.117188 -14.070312 7.671875 -13.6875 C 6.703125 -12.863281 5.867188 -12.453125 5.171875 -12.453125 C 4.972656 -12.453125 4.851562 -12.488281 4.8125 -12.5625 C 4.769531 -12.632812 4.75 -12.84375 4.75 -13.1875 C 4.75 -13.519531 4.773438 -13.738281 4.828125 -13.84375 C 4.890625 -13.945312 5.035156 -14.050781 5.265625 -14.15625 C 5.671875 -14.3125 6.164062 -14.742188 6.75 -15.453125 C 7.332031 -16.171875 7.929688 -17.066406 8.546875 -18.140625 C 9.003906 -18.941406 9.289062 -19.488281 9.40625 -19.78125 C 9.53125 -20.082031 9.550781 -20.289062 9.46875 -20.40625 C 9.34375 -20.613281 9.28125 -20.742188 9.28125 -20.796875 Z M 12.234375 -16.515625 C 12.160156 -16.609375 12.0625 -16.648438 11.9375 -16.640625 C 11.644531 -16.617188 11.128906 -16.421875 10.390625 -16.046875 C 9.648438 -15.679688 9.28125 -15.4375 9.28125 -15.3125 C 9.28125 -15.195312 9.640625 -15.003906 10.359375 -14.734375 C 11.078125 -14.472656 11.472656 -14.378906 11.546875 -14.453125 C 11.660156 -14.566406 11.8125 -14.921875 12 -15.515625 C 12.1875 -16.117188 12.265625 -16.453125 12.234375 -16.515625 Z M 10.515625 -12.421875 C 10.265625 -12.671875 9.910156 -12.796875 9.453125 -12.796875 C 9.085938 -12.796875 8.878906 -12.757812 8.828125 -12.6875 C 8.785156 -12.613281 8.863281 -12.445312 9.0625 -12.1875 C 9.207031 -11.988281 9.28125 -11.664062 9.28125 -11.21875 L 9.28125 -10.609375 L 10.015625 -10.921875 C 10.421875 -11.085938 10.671875 -11.3125 10.765625 -11.59375 C 10.859375 -11.875 10.773438 -12.148438 10.515625 -12.421875 Z M 10.515625 -12.421875 "/></g></g></g><g fill="#ffffff" fill-opacity="1"><g transform="translate(44.999946, 24.893516)"><g><path d="M 16.765625 -5.359375 L 17.453125 -5.359375 C 17.992188 -5.359375 18.582031 -5.082031 19.21875 -4.53125 C 19.851562 -3.988281 20.171875 -3.492188 20.171875 -3.046875 C 20.171875 -2.703125 20.050781 -2.460938 19.8125 -2.328125 C 19.582031 -2.203125 19.128906 -2.128906 18.453125 -2.109375 C 17.585938 -2.066406 17.15625 -2.078125 17.15625 -2.140625 C 17.15625 -2.203125 17.273438 -2.359375 17.515625 -2.609375 C 17.816406 -2.929688 17.945312 -3.28125 17.90625 -3.65625 C 17.875 -4.039062 17.679688 -4.414062 17.328125 -4.78125 Z M 12.625 -18.734375 C 12.707031 -19.085938 12.785156 -19.332031 12.859375 -19.46875 C 12.929688 -19.613281 13.015625 -19.675781 13.109375 -19.65625 C 13.304688 -19.613281 13.46875 -19.421875 13.59375 -19.078125 C 13.71875 -18.742188 13.78125 -18.320312 13.78125 -17.8125 C 13.78125 -17.15625 13.847656 -16.828125 13.984375 -16.828125 C 14.078125 -16.828125 14.492188 -17.035156 15.234375 -17.453125 C 15.972656 -17.878906 16.429688 -18.179688 16.609375 -18.359375 C 16.972656 -18.648438 17.625 -18.71875 18.5625 -18.5625 C 19.507812 -18.40625 20.054688 -18.125 20.203125 -17.71875 C 20.304688 -17.457031 20.296875 -17.203125 20.171875 -16.953125 C 20.054688 -16.710938 19.703125 -16.351562 19.109375 -15.875 C 18.523438 -15.394531 17.957031 -15.023438 17.40625 -14.765625 C 16.332031 -14.191406 15.796875 -13.816406 15.796875 -13.640625 C 15.796875 -13.566406 15.8125 -13.515625 15.84375 -13.484375 C 15.976562 -13.347656 16.207031 -13.28125 16.53125 -13.28125 C 16.800781 -13.28125 16.984375 -13.191406 17.078125 -13.015625 C 17.171875 -12.847656 17.144531 -12.671875 17 -12.484375 C 16.875 -12.285156 16.671875 -11.90625 16.390625 -11.34375 C 16.171875 -10.9375 16.050781 -10.660156 16.03125 -10.515625 C 16.007812 -10.378906 16.054688 -10.195312 16.171875 -9.96875 C 16.265625 -9.789062 16.390625 -9.648438 16.546875 -9.546875 C 16.703125 -9.453125 16.976562 -9.363281 17.375 -9.28125 C 18.007812 -9.113281 18.328125 -8.941406 18.328125 -8.765625 C 18.328125 -8.617188 18.226562 -8.484375 18.03125 -8.359375 C 17.84375 -8.234375 17.46875 -8.070312 16.90625 -7.875 C 16.457031 -7.738281 16.191406 -7.609375 16.109375 -7.484375 C 16.035156 -7.367188 15.988281 -6.6875 15.96875 -5.4375 C 15.957031 -2.101562 15.769531 -0.304688 15.40625 -0.046875 C 15.1875 0.0976562 14.941406 0.125 14.671875 0.03125 C 14.398438 -0.0507812 13.921875 -0.320312 13.234375 -0.78125 C 12.492188 -1.289062 12.066406 -1.503906 11.953125 -1.421875 C 11.835938 -1.335938 11.691406 -1.144531 11.515625 -0.84375 C 11.265625 -0.34375 10.921875 -0.179688 10.484375 -0.359375 C 10.054688 -0.546875 9.757812 -0.957031 9.59375 -1.59375 C 9.382812 -2.363281 9.394531 -2.921875 9.625 -3.265625 C 9.851562 -3.617188 10.238281 -3.640625 10.78125 -3.328125 C 10.957031 -3.222656 11.128906 -3.203125 11.296875 -3.265625 C 11.472656 -3.335938 12.046875 -3.644531 13.015625 -4.1875 C 13.617188 -4.5 13.984375 -4.734375 14.109375 -4.890625 C 14.234375 -5.054688 14.296875 -5.363281 14.296875 -5.8125 C 14.296875 -6.1875 14.242188 -6.414062 14.140625 -6.5 C 14.046875 -6.59375 13.878906 -6.535156 13.640625 -6.328125 C 13.253906 -6.023438 12.738281 -5.703125 12.09375 -5.359375 C 11.457031 -5.015625 11.054688 -4.859375 10.890625 -4.890625 C 10.734375 -4.929688 10.628906 -5 10.578125 -5.09375 C 10.535156 -5.1875 10.488281 -5.410156 10.4375 -5.765625 C 10.414062 -6.140625 10.429688 -6.378906 10.484375 -6.484375 C 10.535156 -6.585938 10.695312 -6.695312 10.96875 -6.8125 C 11.363281 -6.957031 11.734375 -7.171875 12.078125 -7.453125 C 12.648438 -7.941406 13.265625 -8.8125 13.921875 -10.0625 C 14.304688 -10.800781 14.390625 -11.140625 14.171875 -11.078125 C 14.085938 -11.046875 13.695312 -10.835938 13 -10.453125 C 12.375 -10.128906 11.9375 -9.957031 11.6875 -9.9375 C 11.4375 -9.925781 11.25 -10.050781 11.125 -10.3125 C 11.007812 -10.5625 10.992188 -10.742188 11.078125 -10.859375 C 11.171875 -10.984375 11.375 -11.085938 11.6875 -11.171875 C 12.257812 -11.304688 12.828125 -11.601562 13.390625 -12.0625 C 13.628906 -12.257812 13.691406 -12.375 13.578125 -12.40625 C 13.367188 -12.457031 13.265625 -12.503906 13.265625 -12.546875 C 13.265625 -12.648438 13.460938 -12.914062 13.859375 -13.34375 C 14.253906 -13.769531 14.488281 -13.984375 14.5625 -13.984375 C 14.675781 -13.984375 14.984375 -14.265625 15.484375 -14.828125 C 15.984375 -15.390625 16.3125 -15.820312 16.46875 -16.125 C 16.644531 -16.4375 16.601562 -16.550781 16.34375 -16.46875 C 15.832031 -16.3125 14.851562 -15.578125 13.40625 -14.265625 C 12.289062 -13.265625 11.695312 -12.765625 11.625 -12.765625 C 11.550781 -12.765625 11.40625 -12.550781 11.1875 -12.125 C 10.976562 -11.707031 10.785156 -11.40625 10.609375 -11.21875 C 10.472656 -11.050781 10.273438 -10.957031 10.015625 -10.9375 C 9.765625 -10.914062 9.578125 -10.984375 9.453125 -11.140625 C 9.316406 -11.273438 9.234375 -11.316406 9.203125 -11.265625 C 9.066406 -11.109375 8.898438 -10.832031 8.703125 -10.4375 C 8.515625 -10.039062 8.421875 -9.796875 8.421875 -9.703125 C 8.421875 -9.546875 8.179688 -9.082031 7.703125 -8.3125 L 6.984375 -7.140625 L 7.109375 -4.421875 C 7.140625 -3.296875 7.144531 -2.539062 7.125 -2.15625 C 7.113281 -1.78125 7.0625 -1.550781 6.96875 -1.46875 C 6.800781 -1.34375 6.71875 -1.175781 6.71875 -0.96875 C 6.71875 -0.769531 6.660156 -0.671875 6.546875 -0.671875 C 6.410156 -0.671875 6.179688 -0.757812 5.859375 -0.9375 C 5.546875 -1.113281 5.390625 -1.234375 5.390625 -1.296875 C 5.390625 -1.484375 5.203125 -1.8125 4.828125 -2.28125 C 4.460938 -2.757812 4.210938 -3 4.078125 -3 C 3.929688 -3 3.738281 -2.9375 3.5 -2.8125 C 3.332031 -2.738281 3.203125 -2.710938 3.109375 -2.734375 C 3.023438 -2.765625 2.898438 -2.878906 2.734375 -3.078125 C 2.429688 -3.390625 2.304688 -3.65625 2.359375 -3.875 C 2.410156 -4.09375 2.625 -4.316406 3 -4.546875 C 3.457031 -4.816406 3.984375 -5.238281 4.578125 -5.8125 C 5.003906 -6.195312 5.273438 -6.492188 5.390625 -6.703125 C 5.503906 -6.910156 5.585938 -7.226562 5.640625 -7.65625 C 5.679688 -8.125 5.675781 -8.984375 5.625 -10.234375 C 5.582031 -11.492188 5.507812 -12.191406 5.40625 -12.328125 C 5.394531 -12.359375 5.351562 -12.359375 5.28125 -12.328125 C 5.21875 -12.296875 5.140625 -12.238281 5.046875 -12.15625 C 4.960938 -12.070312 4.863281 -11.972656 4.75 -11.859375 C 4.382812 -11.460938 4.113281 -11.265625 3.9375 -11.265625 C 3.738281 -11.265625 3.429688 -11.378906 3.015625 -11.609375 C 2.597656 -11.835938 2.289062 -12.0625 2.09375 -12.28125 C 1.945312 -12.445312 1.875 -12.539062 1.875 -12.5625 C 1.875 -12.582031 1.972656 -12.59375 2.171875 -12.59375 C 2.578125 -12.59375 3.40625 -13.015625 4.65625 -13.859375 C 5.289062 -14.265625 5.6875 -14.675781 5.84375 -15.09375 C 6 -15.507812 6.046875 -16.210938 5.984375 -17.203125 C 5.910156 -17.773438 5.882812 -18.140625 5.90625 -18.296875 C 5.9375 -18.453125 6.019531 -18.53125 6.15625 -18.53125 C 6.363281 -18.53125 6.648438 -18.316406 7.015625 -17.890625 C 7.378906 -17.460938 7.617188 -17.046875 7.734375 -16.640625 C 7.847656 -16.222656 7.941406 -15.976562 8.015625 -15.90625 C 8.085938 -15.832031 8.28125 -15.796875 8.59375 -15.796875 C 9.289062 -15.796875 9.644531 -15.628906 9.65625 -15.296875 C 9.664062 -14.972656 9.3125 -14.582031 8.59375 -14.125 C 8.207031 -13.863281 7.96875 -13.660156 7.875 -13.515625 C 7.78125 -13.378906 7.707031 -13.113281 7.65625 -12.71875 C 7.570312 -12.132812 7.457031 -11.691406 7.3125 -11.390625 C 7.226562 -11.265625 7.160156 -10.992188 7.109375 -10.578125 C 7.054688 -10.171875 7.03125 -9.789062 7.03125 -9.4375 C 7.03125 -9.082031 7.070312 -8.90625 7.15625 -8.90625 C 7.300781 -8.90625 7.8125 -9.570312 8.6875 -10.90625 C 9.144531 -11.644531 9.34375 -12.1875 9.28125 -12.53125 C 9.25 -12.757812 9.253906 -12.910156 9.296875 -12.984375 C 9.347656 -13.066406 9.457031 -13.148438 9.625 -13.234375 C 10.0625 -13.421875 10.613281 -14.132812 11.28125 -15.375 C 11.945312 -16.625 12.394531 -17.742188 12.625 -18.734375 Z M 5.390625 -3.6875 C 5.390625 -3.988281 5.363281 -4.148438 5.3125 -4.171875 C 5.257812 -4.191406 5.140625 -4.085938 4.953125 -3.859375 C 4.796875 -3.710938 4.71875 -3.601562 4.71875 -3.53125 C 4.71875 -3.46875 4.769531 -3.398438 4.875 -3.328125 C 5.082031 -3.210938 5.21875 -3.175781 5.28125 -3.21875 C 5.351562 -3.269531 5.390625 -3.425781 5.390625 -3.6875 Z M 14.09375 -3.046875 C 14.164062 -3.773438 13.960938 -3.84375 13.484375 -3.25 C 13.046875 -2.6875 13.097656 -2.40625 13.640625 -2.40625 C 13.816406 -2.40625 13.929688 -2.445312 13.984375 -2.53125 C 14.046875 -2.613281 14.082031 -2.785156 14.09375 -3.046875 Z M 14.09375 -3.046875 "/></g></g></g><g fill="#ffffff" fill-opacity="1"><g transform="translate(67.151515, 24.893516)"><g><path d="M 11.6875 -19.59375 C 11.75 -19.6875 11.976562 -19.710938 12.375 -19.671875 C 12.769531 -19.628906 13.039062 -19.546875 13.1875 -19.421875 C 13.414062 -19.253906 13.476562 -19.007812 13.375 -18.6875 C 13.28125 -18.363281 12.945312 -17.742188 12.375 -16.828125 C 11.632812 -15.660156 11.265625 -15.046875 11.265625 -14.984375 C 11.265625 -14.921875 11.546875 -14.742188 12.109375 -14.453125 C 12.484375 -14.234375 12.710938 -14.0625 12.796875 -13.9375 C 12.878906 -13.8125 12.945312 -13.554688 13 -13.171875 C 13.0625 -12.660156 13.128906 -12.335938 13.203125 -12.203125 C 13.273438 -12.078125 13.4375 -12.015625 13.6875 -12.015625 C 14.4375 -12.015625 14.539062 -11.535156 14 -10.578125 C 13.882812 -10.378906 13.726562 -10.160156 13.53125 -9.921875 C 13.09375 -9.328125 13.09375 -8.84375 13.53125 -8.46875 C 13.71875 -8.332031 13.8125 -8.132812 13.8125 -7.875 C 13.8125 -7.625 13.71875 -7.4375 13.53125 -7.3125 C 13.363281 -7.164062 13.28125 -6.898438 13.28125 -6.515625 C 13.28125 -6.203125 13.304688 -6.039062 13.359375 -6.03125 C 13.410156 -6.007812 13.46875 -6.039062 13.53125 -6.125 C 13.675781 -6.226562 13.875 -6.171875 14.125 -5.953125 C 14.582031 -5.492188 15.109375 -5.265625 15.703125 -5.265625 C 15.941406 -5.265625 16.1875 -5.148438 16.4375 -4.921875 C 16.84375 -4.523438 17.097656 -4.554688 17.203125 -5.015625 C 17.253906 -5.210938 17.285156 -5.539062 17.296875 -6 C 17.316406 -6.625 17.304688 -7.035156 17.265625 -7.234375 C 17.222656 -7.429688 17.046875 -7.726562 16.734375 -8.125 C 16.046875 -9.070312 15.921875 -9.546875 16.359375 -9.546875 C 16.578125 -9.546875 16.882812 -9.429688 17.28125 -9.203125 L 18.5625 -8.515625 C 18.945312 -8.316406 19.175781 -8.082031 19.25 -7.8125 C 19.332031 -7.539062 19.363281 -6.875 19.34375 -5.8125 C 19.3125 -4.957031 19.269531 -4.378906 19.21875 -4.078125 C 19.164062 -3.785156 19.078125 -3.566406 18.953125 -3.421875 C 18.578125 -3.015625 17.8125 -2.984375 16.65625 -3.328125 C 16.144531 -3.472656 15.300781 -3.53125 14.125 -3.5 C 13.320312 -3.457031 12.757812 -3.40625 12.4375 -3.34375 C 12.113281 -3.28125 11.648438 -3.101562 11.046875 -2.8125 C 10.160156 -2.414062 9.414062 -2.175781 8.8125 -2.09375 L 7.875 -2.015625 L 7.140625 -2.8125 L 6.390625 -3.59375 L 6.125 -3.046875 C 5.78125 -2.390625 5.265625 -1.703125 4.578125 -0.984375 C 3.898438 -0.265625 3.425781 0.09375 3.15625 0.09375 C 2.757812 0.09375 2.703125 -0.253906 2.984375 -0.953125 C 3.222656 -1.578125 3.625 -2.175781 4.1875 -2.75 C 4.613281 -3.175781 4.984375 -3.753906 5.296875 -4.484375 C 5.617188 -5.222656 5.835938 -5.597656 5.953125 -5.609375 C 6.117188 -5.609375 6.257812 -5.515625 6.375 -5.328125 C 6.488281 -5.148438 6.546875 -4.929688 6.546875 -4.671875 C 6.546875 -4.429688 6.578125 -4.269531 6.640625 -4.1875 C 6.710938 -4.113281 6.898438 -4.054688 7.203125 -4.015625 C 7.617188 -3.941406 8.082031 -3.960938 8.59375 -4.078125 C 9.082031 -4.191406 9.59375 -4.363281 10.125 -4.59375 C 10.65625 -4.832031 10.921875 -5.007812 10.921875 -5.125 C 10.921875 -5.238281 10.800781 -5.453125 10.5625 -5.765625 C 10.425781 -5.921875 10.285156 -6.03125 10.140625 -6.09375 C 10.003906 -6.164062 9.800781 -6.203125 9.53125 -6.203125 L 8.8125 -6.203125 L 8.859375 -7.140625 C 8.890625 -7.773438 8.804688 -8.175781 8.609375 -8.34375 L 7.84375 -9.0625 C 7.53125 -9.332031 7.394531 -9.625 7.4375 -9.9375 C 7.445312 -10.125 7.492188 -10.253906 7.578125 -10.328125 C 7.660156 -10.398438 7.859375 -10.46875 8.171875 -10.53125 C 8.597656 -10.632812 9.226562 -10.878906 10.0625 -11.265625 L 11.265625 -11.859375 L 11.25 -12.75 L 11.203125 -13.609375 L 10.15625 -13.609375 C 9.664062 -13.609375 9.375 -13.628906 9.28125 -13.671875 C 9.195312 -13.710938 9.144531 -13.863281 9.125 -14.125 C 9.09375 -14.457031 9.242188 -14.816406 9.578125 -15.203125 C 10.035156 -15.710938 10.460938 -16.285156 10.859375 -16.921875 C 11.265625 -17.566406 11.5625 -18.125 11.75 -18.59375 C 11.9375 -19.0625 11.957031 -19.316406 11.8125 -19.359375 C 11.675781 -19.410156 11.632812 -19.488281 11.6875 -19.59375 Z M 11.296875 -9.765625 C 11.390625 -9.898438 11.390625 -9.992188 11.296875 -10.046875 C 11.210938 -10.109375 10.9375 -10.023438 10.46875 -9.796875 C 10 -9.578125 9.75 -9.40625 9.71875 -9.28125 C 9.664062 -9.132812 9.6875 -8.960938 9.78125 -8.765625 C 9.882812 -8.566406 10.003906 -8.46875 10.140625 -8.46875 C 10.253906 -8.46875 10.429688 -8.601562 10.671875 -8.875 C 10.921875 -9.15625 11.128906 -9.453125 11.296875 -9.765625 Z M 11.296875 -9.765625 "/></g></g></g></svg>
