<svg width="26" height="18" viewBox="0 0 67 47" xmlns="http://www.w3.org/2000/svg">
  <title>mediaHoundDog</title>
  <g fill="none" fill-rule="evenodd">
    <path fill="#FFF"
          d="M13.683 4.203c-2.17.622-5.196-.036-5.196-.036L7 4.818 5.65 6.545l.103 1.847 3.453 1.23 2.495 1.214 1.76 1.76-1.145 1.164-1.299.786.051 3.572-.717 2.941-5.087 4.858-2.836 4.05 1.827 6.357 3.143 4.92 4.92 2.613 8.454.257 7.623-2.347 3.743-1.178 6.904-.736 6.546-3.077 1.98-6.252 3.348-.051 5.946.82 8.388-3.792.53-2.634-2.188-2.07-2.602-1.294-1.094-3.556.377-3.608-1.196-4.066-2.258-1.145-1.967-.567-3.094.923-5.78 1.317-3.863-1.23-6.87-1.914-7.11-1.076-3.388-.45-.82-1.49-4.202-3.228-2.94.377" />
    <path fill="#000"
          d="M3.957 6.656c-1.942 3.662 1.535 3.428 4.157 3.538 2.615.113 2.9 1.435 3.942 2.804-1.217.449-2.643 1.446-2.595 3.569.045 2.21.588 2.363.588 3.001 0 1.108-2.146 2.98-3.463 4.01-2.206 1.813-2.907 2.305-4.456 4.107-2.207 2.646-2.14 4.666 0 8.025 1.292 2.13 3.643 5.17 5.1 6.537 2.208 2.047 4.645 3.173 7.242 3.615 1.032.17 4.395.357 6.394-.108 6.136-1.393 6.564-2.712 9.724-3.416 2.181-.464 4.803-.239 7.917-.558 6.515-.736 8.245-3.244 8.974-4.243 1.45-1.821 1.625-4.804 1.615-5.183.004-.013 1.307.766 4.357 1.065 1.235.092 2.476.05 4.01-.138 2.05-.203 4.558-1.297 6.92-3.39 1.482-1.364 2.677-3.13 2.515-4.44-.188-1.66-1.755-2.668-2.163-2.85-1.798-.825-3.499-1.149-3.585-4.253 0-.694.093-.753.183-1.519.296-2.165-.184-4.466-.86-5.744-.462-.943-1.599-2.196-2.793-2.717-1.194-.522-2.045-.866-5.827.333-1.894.573-4.647 1.382-6.14 1.354-2.07 0-3.231-1.034-6.233-2.2-2.048-.772-4.794-.84-5.102-.841-3.431.029-4.979-.665-5.818-.954-1.38-.465-2.494-.495-3.03-.429.3-.62-1.833-1.805-2.644-2.457-.812-.652-2.583-2.764-4.66-2.725-2.087 0-3.704 2.015-5.791 2.83-.802.287-1.061.292-2.042.292-.98 0-1.057-.06-1.973-.079-1.381-.037-3.216 1.217-4.463 3.164zm4.21-1.46c.89-.161 2.386.07 3.876 0 2.814-.105 3.914-2.905 6.428-2.905.51.002 1.321-.05 2.175.666 1.35 1.132 3.26 2.552 3.275 3.045-.106.459-1.019 1.099-1.116 1.22-.097.122-1.153 1.174.314.586.655-.282 1.889-.708 2.899-.708.851.012 3.413 1.184 4.627 1.212 1.736.073 3.528.158 4.01.223 5.6.725 7.462 2.599 8.255 2.859.71.292 1.575.32 2.428.32 2.385.002 3.675-.864 6.726-1.567.733-.188 2.385-.472 3.082-.472 1.89.002 3.959 1.028 3.975 5.581 0 1.023-.16 3.091-.16 3.72s.016 1.103.085 1.376c.23.95.417 1.647 1.938 2.9 1.44 1.215 3.172 1.402 3.258 2.535-.13 1.646-4.529 4.371-9.096 4.371-1.246-.002-2.986-.152-4.941-1.143-2.243-1.18-3.074-2.307-3.921-6.24-.339-1.466-.819-2.203-1.213-2.054-.395.149-.117 1.515.365 3.85.273 1.658.298 2.733.298 3.272.277 6.43-3.962 11.966-11.81 11.521-9.202-.546-7.673 3.214-16.443 3.63-.244.011-5.773-.035-7.878-1.835 3.65-.569 5.913-1.242 5.913-1.795 0-.553-.99-.553-.962-.553-.476 0-1.27.277-3.246.277-1.377-.022-2.956-.134-3.958-.277-1.003-.142-1.493-.375-1.586-1.382.32.045 2.106.328 2.801-.165 1.353-.942 2.855-3.163 2.866-4.743 0-1.28-.683-2.143-2.488-2.281-1.805-.139-3.52-.145-4.423 0-.522.09-.973.41-1.106-.522-.073-.512 1.72-2.758 3.832-4.106.419-.278 2.72-1.551 4.185-4.077 1.466-2.525.351-3.504.231-4.896-.147-1.568 2.01-1.663 3.03-2.126.662-.357 2.256-2.372 1.978-2.929-.31-.533-1.475.559-1.979.576-1.05.022-1.135-2.2-3.44-3.348-1.259-.599-2.622-.554-2.999-.554-.377 0-1.387 0-1.926-.055-.058-.724.268-2.506 1.84-3.007zm12.887 9.47c0-.507-.173-2.36 2.506-1.164 1.387.62 15.631 7.28 17.293 7.952 2.51 1.016.983 2.58.316 2.902-5.098 2.464-16.353 7.946-17.609 8.526-1.256.58-2.506 1.015-2.506-1.82V14.665zm4.465 8.422c0-1.252 1.521-2.296 2.849-2.394.812-.063 2.691.833 2.756 3.116 0 .46-.06 1.674-1.6 1.674-1.663 0-4.005-1.145-4.005-2.396z" />
  </g>
</svg>
